<svg width="271" height="192" viewBox="0 0 271 192" fill="none" xmlns="http://www.w3.org/2000/svg">
<path d="M15.4466 142.605H16.1642C16.8654 137.982 16.8654 133.29 16.1642 128.668C15.0016 119.508 11.7722 115.252 8.77242 112.295C8.70675 112.23 8.61618 112.192 8.52063 112.19C8.42507 112.187 8.33236 112.22 8.26289 112.281C8.19342 112.342 8.15287 112.427 8.15018 112.516C8.14749 112.605 8.18287 112.692 8.24853 112.756C11.1694 115.627 14.3127 119.775 15.425 128.741C16.136 133.338 16.1432 138.006 15.4466 142.605Z" fill="white"/>
<path d="M13.8821 142.605H14.65C11.8727 136.095 5.55737 131.452 0.390297 131.023C0.343521 131.019 0.296231 131.023 0.251224 131.036C0.206217 131.048 0.164409 131.069 0.128275 131.097C0.092141 131.126 0.0624156 131.16 0.0408574 131.199C0.0192992 131.238 0.00634614 131.281 0.0027662 131.324C-0.00322082 131.368 0.000535118 131.413 0.013796 131.455C0.027057 131.497 0.0495385 131.537 0.079841 131.571C0.110143 131.605 0.147615 131.632 0.189918 131.652C0.23222 131.672 0.278445 131.683 0.325709 131.686C5.20572 132.094 11.1694 136.456 13.8821 142.605Z" fill="white"/>
<path d="M250.154 82.4736L251.216 82.9955C251.206 82.9767 251.194 82.9588 251.18 82.9419C249.659 81.2558 247.692 72.9991 248.518 68.1615C249.537 62.1865 252.823 58.2856 255.637 56.633C255.671 56.6132 255.701 56.5872 255.724 56.5564C255.748 56.5257 255.764 56.4909 255.773 56.454C255.782 56.4172 255.783 56.3791 255.775 56.342C255.768 56.3049 255.752 56.2696 255.73 56.2382C255.684 56.1742 255.614 56.1294 255.534 56.1131C255.453 56.0969 255.369 56.1105 255.299 56.1512C252.429 57.8708 248.955 61.9055 247.9 68.0746C247.14 72.5776 248.661 79.7102 250.154 82.4736Z" fill="white"/>
<path d="M257.732 86.1807C257.66 75.1539 266.136 62.2403 270.851 59.6308C270.92 59.5894 270.97 59.5247 270.99 59.4501C271.01 59.3754 270.999 59.2964 270.958 59.2294C270.915 59.165 270.847 59.1186 270.768 59.0999C270.69 59.0812 270.606 59.0916 270.535 59.129C265.756 61.8054 257.208 74.7257 257.115 85.893L257.732 86.1807Z" fill="white"/>
<path d="M260 74.7185C259.935 74.7323 259.867 74.7253 259.807 74.6986C259.747 74.6718 259.699 74.627 259.67 74.5713C258.301 72.1899 257.148 69.7055 256.225 67.1443C256.213 67.1083 256.208 67.0704 256.212 67.0327C256.215 66.9951 256.227 66.9584 256.245 66.9249C256.264 66.8913 256.289 66.8615 256.32 66.8372C256.351 66.8128 256.387 66.7944 256.426 66.783C256.465 66.7716 256.505 66.7674 256.546 66.7706C256.586 66.7738 256.625 66.7844 256.661 66.8018C256.697 66.8192 256.729 66.8431 256.755 66.872C256.781 66.9009 256.801 66.9343 256.813 66.9703C257.728 69.496 258.866 71.9466 260.215 74.297C260.253 74.3654 260.261 74.4452 260.237 74.519C260.213 74.5928 260.159 74.6549 260.086 74.6917L260 74.7185Z" fill="white"/>
<path d="M257.962 81.4763C257.903 81.4865 257.842 81.4812 257.787 81.4611C257.731 81.441 257.682 81.4069 257.646 81.3626C257.599 81.2986 257.58 81.2198 257.595 81.1434C257.61 81.0669 257.657 80.999 257.725 80.9544C260.815 78.9372 264.565 77.9905 268.325 78.278C268.406 78.2878 268.481 78.3275 268.531 78.3883C268.582 78.4492 268.604 78.5263 268.594 78.6026C268.583 78.6789 268.541 78.7482 268.475 78.7952C268.41 78.8423 268.328 78.8632 268.246 78.8535C264.646 78.598 261.06 79.4975 258.084 81.4027C258.049 81.4346 258.007 81.4597 257.962 81.4763Z" fill="white"/>
<path d="M167.897 14.1183L150.408 4.7041L132.926 14.1183L150.408 23.5325L167.897 14.1183Z" fill="#F5F5F5"/>
<path d="M150.407 42.3665L167.897 32.9523V14.1172L150.407 23.5314V42.3665Z" fill="#EBEBEB"/>
<path d="M153.78 36.1179C153.688 36.1194 153.596 36.0987 153.515 36.0576C153.403 35.9816 153.314 35.8802 153.257 35.7631C153.199 35.646 153.174 35.5171 153.185 35.3885V33.3812V33.234H153.292L154.972 32.3174V34.5455C154.969 34.8324 154.893 35.1147 154.75 35.3685C154.606 35.6223 154.399 35.8403 154.146 36.0041C154.038 36.0725 153.911 36.1118 153.78 36.1179ZM153.458 33.5284V35.3752C153.446 35.4611 153.457 35.5485 153.491 35.6292C153.525 35.7099 153.58 35.7813 153.651 35.8368C153.709 35.861 153.773 35.8701 153.837 35.863C153.9 35.856 153.96 35.833 154.01 35.7967C154.225 35.6569 154.402 35.4721 154.526 35.2572C154.651 35.0422 154.72 34.8031 154.728 34.5589V34.3983H154.103L153.981 33.6154L153.458 33.5284ZM154.319 34.144H154.706V32.7724L153.702 33.3143L154.197 33.4013L154.319 34.144Z" fill="white"/>
<path d="M154.082 37.7104C154.046 37.7104 154.011 37.697 153.986 37.6732C153.96 37.6493 153.946 37.617 153.946 37.5833V35.9105C153.945 35.8936 153.947 35.8766 153.954 35.8607C153.96 35.8449 153.97 35.8305 153.983 35.8185C153.996 35.8065 154.012 35.7971 154.029 35.7911C154.046 35.7851 154.064 35.7824 154.082 35.7834C154.118 35.7834 154.153 35.7968 154.179 35.8206C154.204 35.8445 154.219 35.8768 154.219 35.9105V37.5565C154.222 37.5751 154.221 37.5941 154.215 37.6123C154.21 37.6305 154.2 37.6474 154.188 37.6619C154.175 37.6764 154.159 37.6883 154.14 37.6966C154.122 37.705 154.102 37.7097 154.082 37.7104Z" fill="white"/>
<path d="M153.3 38.1324C153.276 38.1323 153.252 38.1259 153.232 38.1141C153.212 38.1023 153.195 38.0855 153.185 38.0655C153.175 38.0518 153.168 38.0363 153.165 38.02C153.163 38.0036 153.164 37.9869 153.168 37.971C153.173 37.9551 153.182 37.9403 153.193 37.9278C153.205 37.9152 153.219 37.9051 153.235 37.8982L154.792 37.0552C154.808 37.0468 154.825 37.0414 154.843 37.0392C154.861 37.037 154.879 37.0381 154.896 37.0425C154.913 37.0468 154.93 37.0543 154.944 37.0645C154.958 37.0747 154.97 37.0875 154.979 37.102C154.995 37.1316 154.999 37.1659 154.99 37.1981C154.981 37.2302 154.959 37.258 154.929 37.276L153.364 38.1123L153.3 38.1324Z" fill="white"/>
<path d="M158.869 35.2413C158.82 35.2553 158.767 35.2553 158.718 35.2413C158.666 35.2085 158.623 35.1634 158.596 35.1105C158.568 35.0577 158.556 34.9989 158.56 34.9402V34.599C158.559 34.5826 158.562 34.5662 158.568 34.5509C158.574 34.5355 158.583 34.5214 158.595 34.5095C158.607 34.4976 158.622 34.4881 158.638 34.4816C158.654 34.4752 158.672 34.4718 158.689 34.4719C158.707 34.4709 158.726 34.4735 158.743 34.4796C158.76 34.4856 158.775 34.4949 158.788 34.507C158.801 34.519 158.811 34.5334 158.817 34.5492C158.824 34.5651 158.827 34.5821 158.826 34.599V34.88C158.826 34.9335 158.826 34.9603 158.826 34.9603C158.826 34.9603 158.869 34.9603 158.912 34.9603C158.995 34.8896 159.061 34.8026 159.105 34.7054C159.148 34.6083 159.168 34.5034 159.163 34.3983V32.2036C159.163 32.1872 159.166 32.171 159.173 32.1559C159.18 32.1409 159.191 32.1273 159.203 32.116C159.216 32.1047 159.231 32.096 159.248 32.0904C159.264 32.0847 159.282 32.0823 159.299 32.0832C159.334 32.0832 159.366 32.0959 159.391 32.1185C159.415 32.1411 159.428 32.1717 159.428 32.2036V34.4384C159.434 34.5874 159.402 34.7355 159.336 34.8713C159.27 35.007 159.172 35.1268 159.048 35.2213C158.99 35.2385 158.929 35.2453 158.869 35.2413Z" fill="white"/>
<path d="M157.448 33.2943V33.0801C157.481 32.5229 157.654 31.9807 157.954 31.4973C158.253 31.0139 158.669 30.6026 159.17 30.2967C159.349 30.1562 159.57 30.0704 159.804 30.0511C160.037 30.0317 160.271 30.0797 160.474 30.1886C160.677 30.2974 160.839 30.4619 160.938 30.6595C161.037 30.8572 161.069 31.0786 161.029 31.2937V31.3673L157.448 33.2943ZM159.974 30.3235C159.737 30.3304 159.506 30.3975 159.306 30.5175C158.88 30.7796 158.519 31.1235 158.247 31.5262C157.974 31.9289 157.797 32.3811 157.728 32.8527L160.756 31.2267C160.768 31.0688 160.735 30.9108 160.662 30.7679C160.589 30.6249 160.478 30.5018 160.34 30.4104C160.228 30.3515 160.102 30.3215 159.974 30.3235Z" fill="white"/>
<path d="M163.67 32.6727C163.635 32.6727 163.601 32.6602 163.576 32.6378C163.551 32.6154 163.535 32.5848 163.534 32.5522V28.2834C163.534 28.2497 163.548 28.2173 163.574 28.1935C163.599 28.1696 163.634 28.1562 163.67 28.1562C163.706 28.1562 163.741 28.1696 163.767 28.1935C163.792 28.2173 163.807 28.2497 163.807 28.2834V32.5522C163.805 32.5848 163.79 32.6154 163.764 32.6378C163.739 32.6602 163.705 32.6727 163.67 32.6727Z" fill="white"/>
<path d="M163.303 29.2524H163.253C163.237 29.2458 163.222 29.2363 163.209 29.2243C163.197 29.2123 163.187 29.1982 163.18 29.1826C163.173 29.1671 163.17 29.1505 163.17 29.1337C163.171 29.117 163.174 29.1005 163.181 29.0851L163.662 28.0547L164.193 28.6301C164.205 28.6424 164.213 28.6567 164.219 28.6721C164.224 28.6875 164.226 28.7037 164.225 28.7199C164.223 28.736 164.219 28.7518 164.211 28.7662C164.203 28.7807 164.192 28.7935 164.179 28.8041C164.166 28.8146 164.15 28.8226 164.134 28.8277C164.117 28.8327 164.1 28.8347 164.083 28.8334C164.065 28.8322 164.048 28.8278 164.033 28.8204C164.017 28.8131 164.004 28.803 163.992 28.7907L163.734 28.5231L163.425 29.1922C163.413 29.2119 163.395 29.2281 163.374 29.2387C163.352 29.2494 163.328 29.2541 163.303 29.2524Z" fill="white"/>
<path d="M164.94 32.0159C164.905 32.0142 164.872 32.0001 164.848 31.9764C164.824 31.9528 164.811 31.9214 164.811 31.8888V27.62C164.806 27.6013 164.806 27.5819 164.811 27.5632C164.815 27.5445 164.824 27.527 164.837 27.512C164.85 27.497 164.866 27.4849 164.884 27.4765C164.903 27.4682 164.923 27.4639 164.944 27.4639C164.964 27.4639 164.985 27.4682 165.003 27.4765C165.022 27.4849 165.038 27.497 165.051 27.512C165.064 27.527 165.073 27.5445 165.077 27.5632C165.082 27.5819 165.082 27.6013 165.077 27.62V31.8888C165.077 31.9225 165.062 31.9549 165.037 31.9787C165.011 32.0026 164.976 32.0159 164.94 32.0159Z" fill="white"/>
<path d="M164.545 28.5912H164.495C164.478 28.5847 164.463 28.5751 164.451 28.5632C164.438 28.5512 164.428 28.537 164.422 28.5215C164.415 28.506 164.412 28.4893 164.412 28.4726C164.412 28.4559 164.416 28.4393 164.423 28.424L164.904 27.3936L165.435 27.969C165.459 27.9925 165.472 28.0237 165.472 28.056C165.472 28.0883 165.459 28.1194 165.435 28.1429C165.409 28.1655 165.374 28.178 165.338 28.178C165.302 28.178 165.268 28.1655 165.241 28.1429L164.99 27.8686L164.682 28.5377C164.667 28.5579 164.646 28.5737 164.622 28.5832C164.598 28.5927 164.571 28.5955 164.545 28.5912Z" fill="white"/>
<path d="M150.408 42.3665L132.919 32.9523L132.926 14.1172L150.408 23.5314V42.3665Z" fill="#E0E0E0"/>
<path d="M142.614 19.3373L160.089 9.91641L158.115 8.85254L140.633 18.2734L142.614 19.3373Z" fill="white"/>
<path d="M135.574 24.9171L141.839 28.2625C142.199 28.4839 142.499 28.7806 142.715 29.1291C142.93 29.4776 143.056 29.8682 143.08 30.2698V33.8696C143.08 34.6123 142.521 34.9134 141.839 34.5387L135.574 31.1932C135.213 30.9723 134.913 30.6756 134.697 30.327C134.482 29.9785 134.357 29.5876 134.332 29.1859V25.5862C134.332 24.8435 134.892 24.549 135.574 24.9171Z" fill="#148CAC"/>
<path d="M135.093 25.8145L135.33 25.9483V29.9428L135.093 29.8157V25.8145Z" fill="#148CAC"/>
<path d="M136.062 26.3359L136.471 26.5634V30.5579L136.062 30.3372V26.3359Z" fill="#148CAC"/>
<path d="M137.03 26.8574L137.268 26.9846V30.9858L137.03 30.8586V26.8574Z" fill="#148CAC"/>
<path d="M137.756 27.2461L138.236 27.507V31.5083L137.756 31.2406V27.2461Z" fill="#148CAC"/>
<path d="M138.961 27.9014L139.205 28.0285V32.0297L138.961 31.8959V27.9014Z" fill="#148CAC"/>
<path d="M139.664 28.2695L140.167 28.5506V32.5451L139.657 32.2641L139.664 28.2695Z" fill="#148CAC"/>
<path d="M140.899 28.9453L141.136 29.0724V33.067L140.899 32.9398V28.9453Z" fill="#148CAC"/>
<path d="M141.451 29.2334L141.573 29.3003V33.2948L141.451 33.2346V29.2334Z" fill="#148CAC"/>
<path d="M140.461 28.7246L140.576 28.7915V32.786L140.461 32.7258V28.7246Z" fill="#148CAC"/>
<path d="M138.509 27.6602L138.624 27.7204V31.7216L138.509 31.6547V27.6602Z" fill="#148CAC"/>
<path d="M137.439 27.085L137.562 27.1519V31.1531L137.439 31.0862V27.085Z" fill="#148CAC"/>
<path d="M136.672 26.6895L136.794 26.7564V30.7576L136.672 30.6907V26.6895Z" fill="#148CAC"/>
<path d="M135.631 26.1016L135.753 26.1685V30.1697L135.631 30.1028V26.1016Z" fill="#148CAC"/>
<path d="M141.868 29.46L142.105 29.5871V33.5883L141.868 33.4612V29.46Z" fill="#148CAC"/>
<path d="M144.58 10.9799L124.17 0L103.767 10.9799L124.17 21.9665L144.58 10.9799Z" fill="#F5F5F5"/>
<path d="M115.422 17.2567L135.832 6.27675L133.851 5.21289L113.449 16.1928L115.422 17.2567Z" fill="white"/>
<path d="M124.17 56.4849L144.58 45.505V10.9795L124.17 21.9661V56.4849Z" fill="#EBEBEB"/>
<path d="M127.543 50.2701C127.45 50.2716 127.358 50.2484 127.278 50.2031C127.165 50.1285 127.074 50.0273 127.017 49.9099C126.959 49.7924 126.935 49.6628 126.948 49.5341V47.5268V47.3796H127.063L128.735 46.4629V48.691C128.731 48.9777 128.654 49.2596 128.511 49.5132C128.367 49.7669 128.161 49.985 127.909 50.1496C127.802 50.2204 127.675 50.262 127.543 50.2701ZM127.22 47.6807V49.5274C127.208 49.6133 127.22 49.7007 127.254 49.7814C127.288 49.8621 127.343 49.9335 127.414 49.989C127.472 50.0133 127.536 50.0223 127.6 50.0152C127.663 50.0082 127.723 49.9852 127.773 49.9489C127.988 49.8091 128.165 49.6243 128.289 49.4094C128.414 49.1944 128.483 48.9553 128.491 48.7111V48.5505H127.866L127.744 47.7676L127.22 47.6807ZM128.082 48.2962H128.505V46.9246L127.5 47.4732L127.995 47.5535L128.082 48.2962Z" fill="white"/>
<path d="M127.845 51.8354C127.809 51.8354 127.774 51.822 127.748 51.7982C127.723 51.7743 127.708 51.742 127.708 51.7083V50.0288C127.708 50.0124 127.712 49.9962 127.719 49.9811C127.726 49.9661 127.736 49.9525 127.749 49.9412C127.762 49.9299 127.777 49.9212 127.793 49.9156C127.81 49.9099 127.827 49.9075 127.845 49.9084C127.88 49.9083 127.914 49.9208 127.939 49.9432C127.965 49.9656 127.98 49.9963 127.982 50.0288V51.7083C127.98 51.7414 127.965 51.7729 127.94 51.7964C127.914 51.8199 127.881 51.8338 127.845 51.8354Z" fill="white"/>
<path d="M127.07 52.2771C127.047 52.2776 127.024 52.2723 127.004 52.2617C126.983 52.2511 126.967 52.2356 126.955 52.2169C126.939 52.1873 126.935 52.153 126.944 52.1208C126.953 52.0887 126.975 52.0609 127.005 52.0429L128.563 51.2065C128.578 51.1982 128.595 51.1927 128.613 51.1905C128.631 51.1884 128.649 51.1895 128.666 51.1938C128.684 51.1982 128.7 51.2057 128.714 51.2159C128.728 51.2261 128.74 51.2389 128.749 51.2534C128.758 51.2674 128.764 51.2828 128.766 51.2989C128.768 51.315 128.767 51.3314 128.762 51.347C128.758 51.3626 128.749 51.3772 128.739 51.3899C128.728 51.4025 128.714 51.413 128.699 51.4207L127.134 52.2637C127.115 52.2744 127.092 52.2791 127.07 52.2771Z" fill="white"/>
<path d="M132.631 49.3657C132.579 49.3659 132.527 49.3544 132.481 49.3323C132.428 49.2995 132.386 49.2543 132.358 49.2015C132.331 49.1486 132.318 49.0899 132.323 49.0312V48.6832C132.323 48.6668 132.326 48.6506 132.333 48.6356C132.34 48.6205 132.35 48.6069 132.363 48.5956C132.376 48.5844 132.391 48.5756 132.407 48.57C132.424 48.5643 132.442 48.5619 132.459 48.5628C132.476 48.5628 132.493 48.5659 132.509 48.572C132.524 48.578 132.538 48.5869 132.55 48.5981C132.562 48.6093 132.572 48.6225 132.578 48.6371C132.585 48.6518 132.588 48.6674 132.588 48.6832V49.0312C132.588 49.078 132.588 49.1048 132.588 49.1115C132.588 49.1182 132.631 49.1115 132.674 49.1115C132.758 49.0394 132.824 48.9512 132.867 48.853C132.911 48.7548 132.931 48.6489 132.926 48.5427V46.3146C132.926 46.2809 132.94 46.2486 132.966 46.2247C132.991 46.2009 133.026 46.1875 133.062 46.1875C133.098 46.1891 133.131 46.203 133.156 46.2265C133.182 46.25 133.197 46.2814 133.198 46.3146V48.5427C133.205 48.6925 133.173 48.8417 133.106 48.9778C133.039 49.114 132.937 49.2332 132.811 49.3256C132.755 49.3515 132.694 49.3652 132.631 49.3657Z" fill="white"/>
<path d="M131.211 47.4183V47.1975C131.245 46.6413 131.418 46.1002 131.717 45.618C132.016 45.1357 132.433 44.7256 132.933 44.4207C133.112 44.2802 133.333 44.1944 133.567 44.1751C133.8 44.1557 134.034 44.2038 134.237 44.3126C134.44 44.4215 134.602 44.5859 134.701 44.7836C134.8 44.9813 134.832 45.2026 134.792 45.4177V45.4913L131.211 47.4183ZM133.737 44.4408C133.5 44.4509 133.27 44.5177 133.069 44.6348C132.642 44.8977 132.28 45.2426 132.008 45.6465C131.736 46.0504 131.559 46.5039 131.491 46.9767L134.519 45.3508C134.53 45.192 134.497 45.0333 134.424 44.8894C134.352 44.7455 134.241 44.6211 134.103 44.5278C133.99 44.4708 133.865 44.4409 133.737 44.4408Z" fill="white"/>
<path d="M137.462 46.7965C137.425 46.7965 137.391 46.7831 137.365 46.7593C137.339 46.7355 137.325 46.7031 137.325 46.6694V42.4006C137.325 42.3669 137.339 42.3345 137.365 42.3107C137.391 42.2868 137.425 42.2734 137.462 42.2734C137.498 42.2734 137.532 42.2868 137.558 42.3107C137.584 42.3345 137.598 42.3669 137.598 42.4006V46.6694C137.598 46.7031 137.584 46.7355 137.558 46.7593C137.532 46.7831 137.498 46.7965 137.462 46.7965Z" fill="white"/>
<path d="M137.066 43.3775H137.016C137 43.3717 136.985 43.3628 136.973 43.3514C136.96 43.3401 136.95 43.3265 136.944 43.3115C136.937 43.2965 136.933 43.2804 136.934 43.2641C136.934 43.2479 136.937 43.2318 136.944 43.2169L137.425 42.1865L137.956 42.7619C137.979 42.7868 137.99 42.8191 137.988 42.8517C137.985 42.8843 137.969 42.9146 137.942 42.9359C137.915 42.9572 137.881 42.9678 137.846 42.9653C137.811 42.9627 137.778 42.9474 137.755 42.9225L137.497 42.6482L137.188 43.3173C137.176 43.3371 137.158 43.3532 137.137 43.3639C137.115 43.3745 137.091 43.3793 137.066 43.3775Z" fill="white"/>
<path d="M138.703 46.1348C138.669 46.1348 138.636 46.1221 138.611 46.0995C138.587 46.0769 138.574 46.0463 138.574 46.0143V41.7455C138.573 41.7291 138.575 41.7127 138.581 41.6973C138.587 41.682 138.597 41.6679 138.609 41.656C138.621 41.6441 138.636 41.6346 138.652 41.6281C138.668 41.6217 138.685 41.6183 138.703 41.6184C138.721 41.6174 138.739 41.62 138.756 41.626C138.774 41.6321 138.789 41.6414 138.802 41.6534C138.815 41.6654 138.825 41.6798 138.831 41.6957C138.838 41.7116 138.841 41.7285 138.84 41.7455V46.0143C138.84 46.0307 138.836 46.047 138.829 46.062C138.822 46.0771 138.812 46.0907 138.799 46.102C138.786 46.1132 138.771 46.122 138.755 46.1276C138.738 46.1332 138.721 46.1357 138.703 46.1348Z" fill="white"/>
<path d="M138.315 42.7153H138.258C138.225 42.7007 138.2 42.6755 138.187 42.6446C138.174 42.6136 138.173 42.5792 138.186 42.548L138.667 41.5176L139.205 42.093C139.227 42.1172 139.239 42.1481 139.239 42.18C139.239 42.2119 139.227 42.2427 139.205 42.267C139.192 42.2789 139.177 42.2884 139.161 42.2948C139.144 42.3013 139.126 42.3046 139.108 42.3046C139.09 42.3046 139.072 42.3013 139.056 42.2948C139.039 42.2884 139.024 42.2789 139.011 42.267L138.76 41.9926L138.451 42.6617C138.437 42.6826 138.417 42.6989 138.392 42.7085C138.368 42.7181 138.341 42.7204 138.315 42.7153Z" fill="white"/>
<path d="M124.17 56.4849L103.768 45.505V10.9795L124.17 21.9661V56.4849Z" fill="#E0E0E0"/>
<path d="M107.916 38.3261L114.174 41.6716C114.536 41.8918 114.837 42.1881 115.054 42.5367C115.271 42.8854 115.397 43.2766 115.422 43.6789V47.2853C115.422 48.0213 114.863 48.3224 114.174 47.9544L107.916 44.6089C107.554 44.3892 107.253 44.0928 107.037 43.744C106.821 43.3952 106.697 43.0038 106.674 42.6016V39.0019C106.674 38.2257 107.234 37.9581 107.916 38.3261Z" fill="#F5F5F5"/>
<path d="M107.435 39.2227L107.672 39.3565V43.351L107.435 43.2239V39.2227Z" fill="#E0E0E0"/>
<path d="M108.403 39.7451L108.813 39.9726V43.9738L108.403 43.7463V39.7451Z" fill="#E0E0E0"/>
<path d="M109.365 40.2656L109.61 40.3928L109.602 44.394L109.365 44.2668V40.2656Z" fill="#E0E0E0"/>
<path d="M110.097 40.6543L110.571 40.9152V44.9165L110.097 44.6488V40.6543Z" fill="#E0E0E0"/>
<path d="M111.303 41.3105L111.54 41.4377V45.4389L111.303 45.3051V41.3105Z" fill="#E0E0E0"/>
<path d="M111.999 41.6777L112.509 41.9588V45.9533L111.999 45.6723V41.6777Z" fill="#E0E0E0"/>
<path d="M113.241 42.3477L113.478 42.4815V46.476L113.241 46.3489V42.3477Z" fill="#E0E0E0"/>
<path d="M113.793 42.6416L113.915 42.7085V46.7097L113.793 46.6428V42.6416Z" fill="#E0E0E0"/>
<path d="M112.803 42.1328L112.918 42.1997V46.1942L112.803 46.134V42.1328Z" fill="#E0E0E0"/>
<path d="M110.851 41.0693L110.966 41.1296V45.1308L110.851 45.0639V41.0693Z" fill="#E0E0E0"/>
<path d="M109.781 40.4932L109.897 40.5601V44.5613L109.781 44.4944V40.4932Z" fill="#E0E0E0"/>
<path d="M109.013 40.0986L109.136 40.1655V44.1668L109.013 44.0998V40.0986Z" fill="#E0E0E0"/>
<path d="M107.973 39.5098L108.095 39.5767V43.5779L107.973 43.511V39.5098Z" fill="#E0E0E0"/>
<path d="M114.209 42.8691L114.446 42.9963V46.9975L114.209 46.8703V42.8691Z" fill="#E0E0E0"/>
<path d="M113.449 20.6486L115.422 21.7124V17.2562L113.449 16.1924V20.6486Z" fill="#F0F0F0"/>
<path d="M83.3578 47.0713L68.7823 39.2295L48.3795 50.2094L62.955 58.0579L83.3578 47.0713Z" fill="#F5F5F5"/>
<path d="M62.9549 89.4386L83.3576 78.4587V47.0713L62.9549 58.0579V89.4386Z" fill="#EBEBEB"/>
<path d="M66.3206 83.1958C66.2293 83.1976 66.1395 83.1743 66.0623 83.1289C65.9496 83.0538 65.8599 82.9526 65.802 82.8352C65.7441 82.7179 65.72 82.5885 65.7322 82.4598V80.4525V80.3053H65.8398L67.5191 79.3887V81.6168C67.5156 81.9035 67.4389 82.1854 67.2954 82.439C67.1519 82.6926 66.9457 82.9108 66.6938 83.0754C66.5829 83.1455 66.4542 83.187 66.3206 83.1958ZM66.0049 80.6064V82.4531C65.9915 82.5392 66.0024 82.6269 66.0363 82.7078C66.0703 82.7888 66.1262 82.8601 66.1986 82.9148C66.2573 82.9364 66.3208 82.944 66.3835 82.937C66.4461 82.93 66.5059 82.9086 66.5574 82.8747C66.7724 82.7349 66.9492 82.5501 67.0738 82.3352C67.1984 82.1202 67.2674 81.8811 67.2751 81.6368V81.4763H66.6507L66.5287 80.6934L66.0049 80.6064ZM66.866 81.222H67.2536V79.8437L66.2489 80.3923L66.744 80.4726L66.866 81.222Z" fill="white"/>
<path d="M66.6294 84.7885C66.5932 84.7885 66.5585 84.7751 66.5329 84.7513C66.5072 84.7274 66.4929 84.6951 66.4929 84.6614V82.9819C66.4928 82.9656 66.4964 82.9493 66.5034 82.9343C66.5103 82.9192 66.5205 82.9056 66.5333 82.8943C66.5461 82.8831 66.5612 82.8743 66.5777 82.8687C66.5942 82.863 66.6119 82.8606 66.6294 82.8615C66.6638 82.8615 66.6967 82.8742 66.7209 82.8968C66.7452 82.9194 66.7588 82.95 66.7588 82.9819V84.6614C66.7589 84.694 66.7455 84.7253 66.7214 84.749C66.6973 84.7726 66.6644 84.7868 66.6294 84.7885Z" fill="white"/>
<path d="M65.8467 85.2029C65.8234 85.2041 65.8002 85.1991 65.7798 85.1885C65.7595 85.1778 65.7428 85.1619 65.7319 85.1427C65.7216 85.1289 65.7145 85.1132 65.7111 85.0967C65.7077 85.0802 65.708 85.0632 65.7121 85.0468C65.7161 85.0304 65.7238 85.015 65.7346 85.0015C65.7455 84.9881 65.7592 84.9769 65.775 84.9687L67.3394 84.1323C67.355 84.1239 67.3721 84.1185 67.3899 84.1163C67.4077 84.1141 67.4258 84.1152 67.4432 84.1196C67.4605 84.124 67.4767 84.1315 67.491 84.1417C67.5052 84.1519 67.5171 84.1646 67.526 84.1792C67.5349 84.1931 67.5406 84.2086 67.5428 84.2247C67.5451 84.2408 67.5438 84.2572 67.5391 84.2728C67.5344 84.2884 67.5264 84.303 67.5155 84.3156C67.5046 84.3283 67.4911 84.3388 67.4758 84.3464L65.9113 85.1895C65.8918 85.2002 65.8692 85.2049 65.8467 85.2029Z" fill="white"/>
<path d="M71.4158 82.3195C71.3634 82.3196 71.3118 82.3082 71.2651 82.286C71.2127 82.2532 71.1705 82.2081 71.1428 82.1553C71.1151 82.1024 71.1028 82.0436 71.1072 81.9849V81.637C71.1072 81.6051 71.1208 81.5744 71.145 81.5518C71.1693 81.5293 71.2021 81.5166 71.2364 81.5166C71.2539 81.5157 71.2715 81.5181 71.288 81.5237C71.3045 81.5294 71.3196 81.5381 71.3324 81.5494C71.3452 81.5607 71.3553 81.5743 71.3623 81.5893C71.3692 81.6044 71.3728 81.6206 71.3727 81.637V81.9849C71.3727 82.0318 71.3727 82.0585 71.3727 82.0652C71.3727 82.0719 71.4158 82.0652 71.4588 82.0652C71.5411 81.9921 71.606 81.9037 71.6493 81.8058C71.6925 81.7078 71.7132 81.6024 71.71 81.4965V79.2684C71.7053 79.2497 71.7052 79.2303 71.7097 79.2117C71.7142 79.193 71.7232 79.1755 71.7359 79.1604C71.7487 79.1454 71.765 79.1333 71.7835 79.125C71.802 79.1166 71.8222 79.1123 71.8428 79.1123C71.8633 79.1123 71.8836 79.1166 71.9021 79.125C71.9206 79.1333 71.9369 79.1454 71.9496 79.1604C71.9624 79.1755 71.9714 79.193 71.9758 79.2117C71.9803 79.2303 71.9802 79.2497 71.9755 79.2684V81.4965C71.9815 81.6455 71.9502 81.7938 71.8842 81.9297C71.8182 82.0655 71.7193 82.1852 71.5952 82.2793C71.5395 82.3053 71.4781 82.319 71.4158 82.3195Z" fill="white"/>
<path d="M69.9947 80.3781V80.1573C70.0287 79.6011 70.2023 79.0601 70.5014 78.5778C70.8006 78.0955 71.2169 77.6854 71.7171 77.3806C71.8953 77.2385 72.1164 77.1514 72.3499 77.1314C72.5834 77.1114 72.8179 77.1593 73.0209 77.2687C73.224 77.378 73.3857 77.5433 73.4838 77.7419C73.5819 77.9405 73.6115 78.1626 73.5686 78.3775V78.4511L69.9947 80.3781ZM72.5208 77.4006C72.2842 77.4107 72.0543 77.4776 71.8534 77.5947C71.4264 77.8575 71.0646 78.2024 70.7923 78.6063C70.52 79.0102 70.3435 79.4638 70.2746 79.9365L73.3031 78.3039C73.3132 78.1461 73.2803 77.9886 73.2076 77.8459C73.1348 77.7031 73.0244 77.5799 72.8868 77.4876C72.7773 77.4294 72.6541 77.3972 72.528 77.3939L72.5208 77.4006Z" fill="white"/>
<path d="M76.2456 79.7497C76.2094 79.7497 76.1746 79.7363 76.149 79.7124C76.1234 79.6886 76.109 79.6563 76.109 79.6225V75.3537C76.109 75.32 76.1234 75.2876 76.149 75.2638C76.1746 75.24 76.2094 75.2266 76.2456 75.2266C76.2818 75.2266 76.3165 75.24 76.3422 75.2638C76.3678 75.2876 76.3822 75.32 76.3822 75.3537V79.6225C76.3822 79.6563 76.3678 79.6886 76.3422 79.7124C76.3165 79.7363 76.2818 79.7497 76.2456 79.7497Z" fill="white"/>
<path d="M75.8508 76.3638H75.8006C75.7843 76.358 75.7695 76.3491 75.757 76.3378C75.7446 76.3264 75.7347 76.3128 75.728 76.2978C75.7212 76.2828 75.7179 76.2667 75.718 76.2505C75.7182 76.2342 75.7219 76.2182 75.7288 76.2033L76.2097 75.1729L76.7407 75.7483C76.7636 75.7731 76.7749 75.8054 76.7722 75.838C76.7695 75.8707 76.753 75.9009 76.7264 75.9222C76.7132 75.9328 76.6979 75.9408 76.6814 75.9458C76.6648 75.9509 76.6474 75.9528 76.6301 75.9516C76.5951 75.9491 76.5626 75.9337 76.5398 75.9089L76.2814 75.6345L75.9728 76.3036C75.9607 76.3234 75.9428 76.3395 75.9212 76.3502C75.8996 76.3609 75.8752 76.3656 75.8508 76.3638Z" fill="white"/>
<path d="M77.4874 79.0879C77.4524 79.0879 77.4187 79.0755 77.3933 79.0531C77.3679 79.0306 77.3527 79 77.3508 78.9675V74.6986C77.3508 74.6649 77.3652 74.6326 77.3908 74.6087C77.4164 74.5849 77.4512 74.5715 77.4874 74.5715C77.5056 74.5705 77.5238 74.5731 77.5409 74.5792C77.5579 74.5852 77.5734 74.5946 77.5863 74.6066C77.5992 74.6186 77.6092 74.633 77.6157 74.6488C77.6222 74.6647 77.625 74.6817 77.624 74.6986V78.9675C77.624 78.9839 77.6204 79.0001 77.6135 79.0151C77.6065 79.0302 77.5964 79.0438 77.5836 79.0551C77.5708 79.0664 77.5557 79.0751 77.5391 79.0807C77.5226 79.0864 77.505 79.0888 77.4874 79.0879Z" fill="white"/>
<path d="M77.0923 75.6949C77.0761 75.7005 77.0583 75.7005 77.0421 75.6949C77.0258 75.689 77.011 75.6802 76.9985 75.6688C76.986 75.6575 76.9761 75.6439 76.9694 75.6289C76.9627 75.6139 76.9593 75.5978 76.9595 75.5815C76.9596 75.5653 76.9633 75.5492 76.9703 75.5343L77.4511 74.5039L77.9822 75.0793C78.0059 75.1029 78.0191 75.134 78.0191 75.1663C78.0191 75.1986 78.0059 75.2297 77.9822 75.2533C77.9695 75.2652 77.9544 75.2747 77.9378 75.2812C77.9212 75.2876 77.9033 75.291 77.8853 75.291C77.8673 75.291 77.8494 75.2876 77.8328 75.2812C77.8162 75.2747 77.8011 75.2652 77.7884 75.2533L77.5372 74.979L77.2287 75.6481C77.213 75.6671 77.1918 75.6815 77.1677 75.6898C77.1436 75.6981 77.1174 75.6999 77.0923 75.6949Z" fill="white"/>
<path d="M62.955 89.4382L48.3795 81.5964V50.209L62.955 58.0575V89.4382Z" fill="#E0E0E0"/>
<path d="M55.1467 58.3117L57.1202 59.3755V54.9193L55.1467 53.8555V58.3117Z" fill="#F5F5F5"/>
<path d="M57.1202 54.9196L77.5302 43.933L75.5494 42.8691L55.1467 53.8557L57.1202 54.9196Z" fill="white"/>
<path d="M57.1202 73.7479L30.8902 59.6299L4.65289 73.7479L30.8902 87.8725L57.1202 73.7479Z" fill="#F5F5F5"/>
<path d="M30.8903 106.701L57.1204 92.5832V73.748L30.8903 87.8727V106.701Z" fill="#EBEBEB"/>
<path d="M34.2561 100.452C34.1653 100.45 34.0764 100.427 33.9977 100.385C33.8856 100.309 33.7963 100.208 33.7384 100.091C33.6806 99.9733 33.6562 99.8441 33.6676 99.7155V97.7082V97.561H33.7753L35.4546 96.6377V98.8725C35.4499 99.1581 35.3727 99.4386 35.2292 99.691C35.0858 99.9434 34.8802 100.16 34.6293 100.324C34.5188 100.396 34.3902 100.44 34.2561 100.452ZM33.9332 97.8621V99.7089C33.9204 99.7938 33.9315 99.8805 33.9655 99.9602C33.9995 100.04 34.0551 100.11 34.1269 100.164C34.1857 100.189 34.2505 100.199 34.3148 100.193C34.379 100.187 34.4405 100.166 34.4929 100.13C34.707 99.9898 34.8833 99.8049 35.0078 99.5901C35.1323 99.3753 35.2017 99.1366 35.2106 98.8926V98.7253H34.5647L34.4427 97.9424L33.9332 97.8621ZM34.7943 98.4777H35.2106V97.1061L34.213 97.6547L34.7082 97.735L34.7943 98.4777Z" fill="white"/>
<path d="M34.5574 102.044C34.5404 102.044 34.5236 102.041 34.5079 102.035C34.4922 102.029 34.4779 102.02 34.4659 102.009C34.4539 101.997 34.4444 101.984 34.4379 101.97C34.4314 101.955 34.428 101.939 34.428 101.923V100.244C34.4233 100.225 34.4232 100.206 34.4277 100.187C34.4322 100.169 34.4412 100.151 34.454 100.136C34.4668 100.121 34.4831 100.109 34.5016 100.101C34.5201 100.092 34.5404 100.088 34.561 100.088C34.5816 100.088 34.6019 100.092 34.6204 100.101C34.639 100.109 34.6552 100.121 34.668 100.136C34.6808 100.151 34.6898 100.169 34.6943 100.187C34.6988 100.206 34.6987 100.225 34.694 100.244V101.923C34.694 101.94 34.6905 101.956 34.6835 101.971C34.6766 101.986 34.6664 102 34.6536 102.011C34.6408 102.022 34.6257 102.031 34.6091 102.037C34.5926 102.042 34.575 102.045 34.5574 102.044Z" fill="white"/>
<path d="M33.7752 102.459C33.7464 102.457 33.719 102.447 33.6968 102.43C33.6746 102.413 33.6588 102.39 33.6516 102.364C33.6445 102.338 33.6463 102.31 33.6569 102.285C33.6675 102.26 33.6863 102.239 33.7106 102.225L35.275 101.388C35.2893 101.379 35.3055 101.372 35.3227 101.369C35.3399 101.366 35.3576 101.367 35.3746 101.37C35.3916 101.374 35.4076 101.381 35.4213 101.391C35.4351 101.401 35.4464 101.414 35.4545 101.429C35.4648 101.442 35.4719 101.458 35.4753 101.475C35.4787 101.491 35.4784 101.508 35.4743 101.525C35.4703 101.541 35.4626 101.556 35.4517 101.57C35.4409 101.583 35.4272 101.594 35.4114 101.603L33.8469 102.459H33.7752Z" fill="white"/>
<path d="M39.3444 99.5823C39.2971 99.5921 39.2481 99.5921 39.2008 99.5823C39.146 99.5497 39.1017 99.5039 39.0726 99.4497C39.0435 99.3955 39.0308 99.3349 39.0358 99.2745V98.9332C39.0358 98.8995 39.0501 98.8672 39.0757 98.8433C39.1013 98.8195 39.136 98.8061 39.1721 98.8061C39.2083 98.8061 39.243 98.8195 39.2685 98.8433C39.2941 98.8672 39.3085 98.8995 39.3085 98.9332V99.2745C39.2986 99.3027 39.2986 99.3332 39.3085 99.3615C39.3085 99.3615 39.3515 99.3615 39.4018 99.3615C39.4827 99.2878 39.5463 99.1991 39.5883 99.1012C39.6303 99.0032 39.6499 98.8982 39.6458 98.7927V96.5646C39.6475 96.5314 39.6624 96.5 39.6876 96.4765C39.7128 96.453 39.7465 96.4391 39.7821 96.4375C39.8183 96.4375 39.853 96.4509 39.8785 96.4747C39.9041 96.4986 39.9185 96.5309 39.9185 96.5646V98.7927C39.9244 98.9418 39.8931 99.09 39.8271 99.2259C39.7611 99.3617 39.6622 99.4814 39.5381 99.5756C39.475 99.592 39.4086 99.5943 39.3444 99.5823Z" fill="white"/>
<path d="M37.9305 97.634V97.4132C37.9617 96.8563 38.134 96.3143 38.4334 95.8316C38.7328 95.3489 39.1507 94.9393 39.6529 94.6364C39.8311 94.4943 40.0522 94.4073 40.2857 94.3873C40.5192 94.3672 40.7536 94.4152 40.9567 94.5245C41.1598 94.6339 41.3215 94.7992 41.4196 94.9978C41.5176 95.1964 41.5473 95.4184 41.5044 95.6334V95.707L37.9305 97.634ZM40.4566 94.6565C40.2179 94.6678 39.9861 94.7345 39.782 94.8505C39.3563 95.114 38.9959 95.4593 38.7248 95.8631C38.4538 96.267 38.2784 96.7202 38.2104 97.1924L41.2317 95.5598C41.2433 95.4025 41.2118 95.2451 41.1403 95.1023C41.0687 94.9596 40.9594 94.8361 40.8226 94.7435C40.7111 94.6845 40.5848 94.6545 40.4566 94.6565Z" fill="white"/>
<path d="M44.1811 97.012C44.1629 97.013 44.1447 97.0104 44.1276 97.0043C44.1106 96.9983 44.0951 96.989 44.0822 96.977C44.0693 96.965 44.0593 96.9505 44.0528 96.9347C44.0463 96.9188 44.0435 96.9019 44.0445 96.8849V92.6161C44.0398 92.5974 44.0397 92.578 44.0442 92.5593C44.0487 92.5406 44.0577 92.5231 44.0705 92.5081C44.0833 92.4931 44.0995 92.481 44.1181 92.4726C44.1366 92.4643 44.1569 92.46 44.1775 92.46C44.1981 92.46 44.2184 92.4643 44.2369 92.4726C44.2555 92.481 44.2717 92.4931 44.2845 92.5081C44.2973 92.5231 44.3063 92.5406 44.3108 92.5593C44.3153 92.578 44.3152 92.5974 44.3105 92.6161V96.8849C44.3115 96.9013 44.3088 96.9177 44.3028 96.9331C44.2967 96.9485 44.2873 96.9625 44.2752 96.9744C44.2631 96.9863 44.2485 96.9958 44.2323 97.0023C44.2161 97.0087 44.1987 97.0121 44.1811 97.012Z" fill="white"/>
<path d="M43.8222 93.5932H43.7648C43.7483 93.5868 43.7333 93.5772 43.721 93.5651C43.7086 93.5529 43.6991 93.5386 43.693 93.5228C43.6869 93.5071 43.6844 93.4903 43.6857 93.4737C43.6869 93.457 43.6919 93.4407 43.7002 93.4259L44.1739 92.3955L44.7121 92.9709C44.7359 92.9967 44.7478 93.0301 44.7451 93.064C44.7424 93.0979 44.7254 93.1294 44.6978 93.1516C44.6702 93.1738 44.6343 93.1848 44.5979 93.1823C44.5616 93.1798 44.5278 93.1639 44.504 93.1382L44.2528 92.8639L43.9442 93.533C43.9315 93.5522 43.9135 93.568 43.892 93.5785C43.8706 93.5891 43.8465 93.5942 43.8222 93.5932Z" fill="white"/>
<path d="M45.4228 96.3503C45.3866 96.3503 45.3519 96.3369 45.3263 96.313C45.3006 96.2892 45.2863 96.2568 45.2863 96.2231V91.9543C45.2863 91.9206 45.3006 91.8882 45.3263 91.8644C45.3519 91.8405 45.3866 91.8271 45.4228 91.8271C45.4591 91.8271 45.4938 91.8405 45.5194 91.8644C45.545 91.8882 45.5594 91.9206 45.5594 91.9543V96.2231C45.5594 96.2568 45.545 96.2892 45.5194 96.313C45.4938 96.3369 45.4591 96.3503 45.4228 96.3503Z" fill="white"/>
<path d="M45.0277 92.9311H44.9775C44.9612 92.9252 44.9464 92.9163 44.9339 92.905C44.9214 92.8937 44.9115 92.8801 44.9048 92.8651C44.8981 92.8501 44.8948 92.834 44.8949 92.8177C44.8951 92.8014 44.8987 92.7854 44.9057 92.7705L45.3865 91.7334L45.9176 92.3088C45.9304 92.3206 45.9406 92.3347 45.9475 92.3502C45.9544 92.3657 45.958 92.3823 45.958 92.3991C45.958 92.4159 45.9544 92.4326 45.9475 92.4481C45.9406 92.4636 45.9304 92.4777 45.9176 92.4895C45.9055 92.5012 45.8911 92.5106 45.875 92.5169C45.859 92.5233 45.8417 92.5266 45.8243 92.5266C45.8069 92.5266 45.7896 92.5233 45.7736 92.5169C45.7576 92.5106 45.7431 92.5012 45.731 92.4895L45.4727 92.2152L45.1641 92.8842C45.149 92.9039 45.1279 92.9189 45.1036 92.9272C45.0793 92.9356 45.0529 92.9369 45.0277 92.9311Z" fill="white"/>
<path d="M30.8902 106.701L4.65289 92.5832V73.748L30.8902 87.8727V106.701Z" fill="#E0E0E0"/>
<path d="M16.7811 84.7345L18.7546 85.7984V81.3422L16.7811 80.2783V84.7345Z" fill="#F5F5F5"/>
<path d="M18.7546 81.3428L44.9919 67.2248L43.0184 66.1543L16.7811 80.279L18.7546 81.3428Z" fill="white"/>
<path d="M8.80802 85.4042L15.0659 88.7497C15.428 88.9699 15.7295 89.2662 15.9464 89.6148C16.1633 89.9634 16.2894 90.3546 16.3146 90.757V94.3634C16.3146 95.0994 15.7549 95.4005 15.0659 95.0325L8.80802 91.687C8.44611 91.4673 8.14502 91.1709 7.92926 90.8221C7.71351 90.4732 7.58921 90.0818 7.56648 89.6797V86.08C7.56648 85.3306 8.12625 85.0629 8.80802 85.4042Z" fill="#F5F5F5"/>
<path d="M8.32744 86.3008L8.56465 86.4279V90.4291L8.32744 90.302V86.3008Z" fill="#E0E0E0"/>
<path d="M9.2888 86.8223L9.70572 87.0498V91.0443L9.2888 90.8235V86.8223Z" fill="#E0E0E0"/>
<path d="M10.2579 87.3438L10.5023 87.4709L10.4951 91.4721L10.2579 91.345V87.3438Z" fill="#E0E0E0"/>
<path d="M10.9897 87.7324L11.4705 87.9934L11.4634 91.9946L10.9897 91.7269V87.7324Z" fill="#E0E0E0"/>
<path d="M12.1954 88.3877L12.4326 88.5148V92.516L12.1954 92.3822V88.3877Z" fill="#E0E0E0"/>
<path d="M12.8914 88.7559L13.4009 89.0369V93.0314L12.8914 92.7504V88.7559Z" fill="#E0E0E0"/>
<path d="M14.1332 89.4316L14.3704 89.5588V93.5533L14.1332 93.4262V89.4316Z" fill="#E0E0E0"/>
<path d="M14.6857 89.7197L14.8079 89.7866V93.7811L14.6857 93.7209V89.7197Z" fill="#E0E0E0"/>
<path d="M13.6955 89.2109L13.8105 89.2712V93.2724L13.6955 93.2121V89.2109Z" fill="#E0E0E0"/>
<path d="M11.7433 88.1475L11.8583 88.2077V92.2089L11.7433 92.142V88.1475Z" fill="#E0E0E0"/>
<path d="M10.6742 87.5713L10.7964 87.6382V91.6327L10.6742 91.5725V87.5713Z" fill="#E0E0E0"/>
<path d="M9.90585 87.1768L10.0281 87.2437V91.2449L9.90585 91.178V87.1768Z" fill="#E0E0E0"/>
<path d="M8.86551 86.5879L8.98771 86.6548V90.6493L8.86551 90.5891V86.5879Z" fill="#E0E0E0"/>
<path d="M15.1019 89.9473L15.3392 90.0811V94.0756L15.1019 93.9485V89.9473Z" fill="#E0E0E0"/>
<path d="M51.2931 36.0901L30.8904 25.1035L10.4804 36.0901L30.8904 47.07L51.2931 36.0901Z" fill="#F5F5F5"/>
<path d="M30.8903 84.7353L51.2931 73.7487V36.0918L30.8903 47.0717V84.7353Z" fill="#EBEBEB"/>
<path d="M34.2561 78.485C34.1659 78.4858 34.077 78.465 33.9977 78.4248C33.8856 78.3492 33.7963 78.2479 33.7384 78.1307C33.6806 78.0135 33.6562 77.8843 33.6676 77.7557V75.7484V75.6012H33.7753L35.4546 74.6846V76.9127C35.4505 77.1993 35.3735 77.481 35.2301 77.7345C35.0866 77.9881 34.8807 78.2063 34.6293 78.3713C34.5177 78.439 34.389 78.4782 34.2561 78.485ZM33.9332 75.8956V77.749C33.9218 77.834 33.9336 77.9202 33.9674 77.9997C34.0013 78.0792 34.0562 78.1495 34.1269 78.204C34.1857 78.2291 34.2505 78.2391 34.3148 78.2333C34.379 78.2274 34.4405 78.2058 34.4929 78.1706C34.7072 78.0286 34.8834 77.8424 35.0079 77.6266C35.1324 77.4107 35.2017 77.171 35.2106 76.926V76.7655H34.5647L34.4427 75.9826L33.9332 75.8956ZM34.7943 76.5112H35.2106V75.1396L34.213 75.6882L34.7082 75.7685L34.7943 76.5112Z" fill="white"/>
<path d="M34.5575 80.0776C34.5399 80.0776 34.5225 80.0743 34.5063 80.0678C34.4901 80.0614 34.4755 80.0519 34.4634 80.04C34.4513 80.0281 34.4419 80.014 34.4359 79.9986C34.4298 79.9832 34.4272 79.9668 34.4281 79.9505V78.2777C34.4272 78.2613 34.4298 78.245 34.4359 78.2296C34.4419 78.2142 34.4513 78.2001 34.4634 78.1882C34.4755 78.1763 34.4901 78.1668 34.5063 78.1603C34.5225 78.1539 34.5399 78.1506 34.5575 78.1506C34.5757 78.1496 34.594 78.1522 34.611 78.1583C34.6281 78.1643 34.6435 78.1737 34.6564 78.1857C34.6693 78.1977 34.6793 78.2121 34.6858 78.2279C34.6923 78.2438 34.6952 78.2608 34.6941 78.2777V79.9505C34.6952 79.9674 34.6923 79.9844 34.6858 80.0002C34.6793 80.0161 34.6693 80.0305 34.6564 80.0425C34.6435 80.0545 34.6281 80.0639 34.611 80.0699C34.594 80.0759 34.5757 80.0786 34.5575 80.0776Z" fill="white"/>
<path d="M33.7752 80.4995C33.7464 80.4978 33.719 80.4877 33.6968 80.4706C33.6746 80.4535 33.6588 80.4303 33.6516 80.4043C33.6445 80.3783 33.6463 80.3508 33.6569 80.3259C33.6675 80.3009 33.6863 80.2797 33.7106 80.2653L35.275 79.4223C35.3065 79.4054 35.3438 79.4009 35.3787 79.4097C35.4137 79.4184 35.4436 79.4398 35.4616 79.4691C35.4797 79.4984 35.4846 79.5332 35.4752 79.5658C35.4657 79.5984 35.4428 79.6262 35.4114 79.6431L33.8469 80.4794C33.8259 80.493 33.8007 80.5 33.7752 80.4995Z" fill="white"/>
<path d="M39.3441 77.6161C39.2931 77.6162 39.2431 77.6022 39.2006 77.5759C39.1458 77.545 39.1013 77.5004 39.0721 77.4473C39.0429 77.3941 39.0303 77.3344 39.0355 77.2748V76.9336C39.0355 76.8999 39.0499 76.8675 39.0755 76.8437C39.101 76.8198 39.1357 76.8065 39.1719 76.8065C39.208 76.8065 39.2427 76.8198 39.2683 76.8437C39.2939 76.8675 39.3082 76.8999 39.3082 76.9336V77.2748C39.2984 77.3031 39.2984 77.3335 39.3082 77.3618C39.3387 77.3698 39.371 77.3698 39.4015 77.3618C39.4834 77.2902 39.5477 77.2028 39.5898 77.1058C39.6319 77.0088 39.6509 76.9043 39.6455 76.7998V74.5717C39.6455 74.5379 39.6599 74.5056 39.6855 74.4818C39.711 74.4579 39.7457 74.4445 39.7819 74.4445C39.8001 74.4436 39.8182 74.4462 39.8353 74.4522C39.8523 74.4583 39.8677 74.4676 39.8806 74.4796C39.8935 74.4916 39.9035 74.506 39.91 74.5219C39.9165 74.5377 39.9193 74.5547 39.9182 74.5717V76.7998C39.9241 76.9488 39.8929 77.0971 39.8269 77.2329C39.7609 77.3688 39.6619 77.4885 39.5379 77.5826C39.4771 77.6081 39.4106 77.6195 39.3441 77.6161Z" fill="white"/>
<path d="M37.9305 75.6951V75.481C37.9628 74.9235 38.1356 74.381 38.4349 73.8974C38.7341 73.4137 39.1514 73.0027 39.6529 72.6976C39.8327 72.5587 40.0539 72.4747 40.2866 72.4567C40.5193 72.4388 40.7522 72.4879 40.9541 72.5973C41.1559 72.7067 41.3169 72.8712 41.4153 73.0686C41.5137 73.266 41.5448 73.4868 41.5044 73.7012V73.7681L37.9305 75.6951ZM40.4566 72.7243C40.2179 72.7356 39.9861 72.8023 39.782 72.9184C39.3572 73.1811 38.9972 73.5253 38.7262 73.928C38.4552 74.3306 38.2794 74.7825 38.2104 75.2535L41.2317 73.6276C41.2447 73.4702 41.2138 73.3124 41.1421 73.1694C41.0705 73.0263 40.9604 72.903 40.8226 72.8113C40.7148 72.7406 40.5882 72.6989 40.4566 72.6909V72.7243Z" fill="white"/>
<path d="M44.1811 75.0267C44.1449 75.0267 44.1101 75.0133 44.0845 74.9895C44.0589 74.9656 44.0445 74.9333 44.0445 74.8996V70.6307C44.0398 70.6121 44.0397 70.5927 44.0442 70.574C44.0487 70.5553 44.0577 70.5378 44.0705 70.5227C44.0833 70.5077 44.0995 70.4956 44.1181 70.4873C44.1366 70.4789 44.1569 70.4746 44.1775 70.4746C44.1981 70.4746 44.2184 70.4789 44.2369 70.4873C44.2555 70.4956 44.2717 70.5077 44.2845 70.5227C44.2973 70.5378 44.3063 70.5553 44.3108 70.574C44.3153 70.5927 44.3152 70.6121 44.3105 70.6307V74.8996C44.3105 74.9321 44.2971 74.9635 44.2731 74.9872C44.249 75.0108 44.2161 75.025 44.1811 75.0267Z" fill="white"/>
<path d="M43.8222 71.6205H43.7648C43.7483 71.6141 43.7333 71.6045 43.721 71.5924C43.7086 71.5803 43.6991 71.5659 43.693 71.5502C43.6869 71.5344 43.6844 71.5177 43.6857 71.501C43.6869 71.4843 43.6919 71.4681 43.7002 71.4533L44.1739 70.4229L44.7121 70.9983C44.7358 71.0218 44.749 71.0529 44.749 71.0853C44.749 71.1176 44.7358 71.1487 44.7121 71.1722C44.6857 71.1948 44.6511 71.2073 44.6152 71.2073C44.5794 71.2073 44.5448 71.1948 44.5184 71.1722L44.2672 70.8979L43.9586 71.567C43.9445 71.5879 43.9238 71.6042 43.8995 71.6138C43.8751 71.6233 43.8481 71.6257 43.8222 71.6205Z" fill="white"/>
<path d="M45.4228 74.3571C45.3872 74.3555 45.3534 74.3416 45.3282 74.3181C45.3029 74.2946 45.288 74.2631 45.2863 74.23V69.9611C45.2863 69.9274 45.3006 69.8951 45.3263 69.8712C45.3519 69.8474 45.3866 69.834 45.4228 69.834C45.4591 69.834 45.4938 69.8474 45.5194 69.8712C45.545 69.8951 45.5594 69.9274 45.5594 69.9611V74.23C45.5577 74.2631 45.5427 74.2946 45.5175 74.3181C45.4922 74.3416 45.4585 74.3555 45.4228 74.3571Z" fill="white"/>
<path d="M45.028 70.9643H44.9778C44.9613 70.9577 44.9463 70.9482 44.9338 70.9362C44.9212 70.9242 44.9113 70.9101 44.9046 70.8946C44.898 70.879 44.8947 70.8624 44.8949 70.8457C44.8951 70.8289 44.8989 70.8124 44.906 70.797L45.3869 69.7666L45.9179 70.342C45.9307 70.3538 45.9409 70.3679 45.9478 70.3834C45.9548 70.3989 45.9583 70.4156 45.9583 70.4324C45.9583 70.4491 45.9548 70.4658 45.9478 70.4813C45.9409 70.4968 45.9307 70.5109 45.9179 70.5227C45.8919 70.5434 45.8588 70.5548 45.8246 70.5548C45.7904 70.5548 45.7573 70.5434 45.7313 70.5227L45.473 70.2484L45.1644 70.9175C45.1487 70.9365 45.1276 70.9509 45.1035 70.9592C45.0793 70.9675 45.0532 70.9693 45.028 70.9643Z" fill="white"/>
<path d="M30.8904 84.7353L10.4804 73.7487V36.0918L30.8904 47.0717V84.7353Z" fill="#E0E0E0"/>
<path d="M20.1611 45.7531L22.1419 46.8169V42.3674L20.1611 41.2969V45.7531Z" fill="#F5F5F5"/>
<path d="M22.1419 42.3669L42.5446 31.3803L40.5711 30.3164L20.1611 41.2963L22.1419 42.3669Z" fill="white"/>
<path d="M14.6354 66.5682L20.8933 69.9137C21.2556 70.133 21.557 70.4293 21.7728 70.7782C21.9886 71.1271 22.1126 71.5187 22.1348 71.921V75.5207C22.1348 76.2567 21.5822 76.5578 20.8933 76.1898L14.6354 72.8443C14.2721 72.6253 13.9696 72.3293 13.7526 71.9804C13.5356 71.6316 13.4102 71.2398 13.3866 70.837V67.2373C13.3938 66.5013 13.9464 66.2002 14.6354 66.5682Z" fill="#F5F5F5"/>
<path d="M14.1476 67.4717L14.3848 67.5988V71.6L14.1476 71.4662V67.4717Z" fill="#E0E0E0"/>
<path d="M15.1163 67.9932L15.5261 68.214V72.2152L15.1163 71.9877V67.9932Z" fill="#E0E0E0"/>
<path d="M16.0851 68.5088L16.3223 68.6426V72.6371L16.0851 72.51V68.5088Z" fill="#E0E0E0"/>
<path d="M16.8172 68.8975L17.2909 69.1651V73.1596L16.8172 72.8987V68.8975Z" fill="#E0E0E0"/>
<path d="M18.0226 69.5527L18.2598 69.6799V73.6811L18.0226 73.5539V69.5527Z" fill="#E0E0E0"/>
<path d="M18.7189 69.9209L19.2285 70.2019V74.2031L18.7189 73.9221V69.9209Z" fill="#E0E0E0"/>
<path d="M19.9604 70.5967L20.1976 70.7238V74.725L19.9604 74.5912V70.5967Z" fill="#E0E0E0"/>
<path d="M20.5132 70.8916L20.6282 70.9518V74.953L20.5132 74.8861V70.8916Z" fill="#E0E0E0"/>
<path d="M19.5153 70.375L19.6375 70.4419V74.4431L19.5153 74.3762V70.375Z" fill="#E0E0E0"/>
<path d="M17.5634 69.3115L17.6856 69.3784V73.3729L17.5634 73.3127V69.3115Z" fill="#E0E0E0"/>
<path d="M16.4943 68.7432L16.6165 68.8034V72.8046L16.4943 72.7377V68.7432Z" fill="#E0E0E0"/>
<path d="M15.7334 68.3486L15.8484 68.4088V72.4101L15.7334 72.3432V68.3486Z" fill="#E0E0E0"/>
<path d="M14.693 67.7598L14.808 67.82V71.8212L14.693 71.7543V67.7598Z" fill="#E0E0E0"/>
<path d="M20.9221 71.1191L21.1665 71.2463V75.2408L20.9221 75.1137V71.1191Z" fill="#E0E0E0"/>
<path d="M10.674 139.761L88.9982 181.914C89.9612 182.369 91.0258 182.607 92.1057 182.607C93.1855 182.607 94.2501 182.369 95.2131 181.914L266.825 89.5784C268.54 88.655 268.54 87.1562 266.825 86.2329L188.5 44.0797C187.538 43.621 186.473 43.3818 185.393 43.3818C184.312 43.3818 183.247 43.621 182.285 44.0797L10.674 136.415C8.95882 137.339 8.95882 138.837 10.674 139.761Z" fill="#455A64"/>
<path d="M53.0081 159.332C54.3435 159.96 55.8183 160.288 57.314 160.288C58.8097 160.288 60.2845 159.96 61.6199 159.332C64.0097 158.047 64.0097 155.987 61.6199 154.682C60.2855 154.051 58.8103 153.722 57.314 153.722C55.8177 153.722 54.3425 154.051 53.0081 154.682C50.6183 155.987 50.6183 158.061 53.0081 159.332Z" fill="#263238"/>
<path d="M90.4697 181.914L12.1454 139.76C10.6097 138.931 10.4518 137.646 11.6646 136.723C10.8986 137.288 10.2688 137.997 9.8162 138.804C9.36365 139.611 9.0985 140.497 9.03802 141.406V144.13C9.09694 145.135 9.40896 146.113 9.94883 146.985C10.4887 147.857 11.2412 148.598 12.1454 149.148L90.4697 191.301C91.4274 191.767 92.4971 191.998 93.5771 191.97V182.609C92.4946 182.629 91.4247 182.389 90.4697 181.914Z" fill="#37474F"/>
<path d="M266.817 98.9584C267.724 98.4097 268.478 97.6692 269.02 96.7971C269.561 95.9251 269.873 94.9462 269.932 93.9401V91.2169C269.874 90.3068 269.609 89.4187 269.155 88.6112C268.701 87.8038 268.068 87.0955 267.298 86.5332C268.518 87.4566 268.36 88.7412 266.825 89.5642L95.2131 181.913C94.2548 182.378 93.1855 182.608 92.1057 182.582V191.997C93.1855 192.022 94.2548 191.792 95.2131 191.327L266.817 98.9584Z" fill="#263238"/>
<path d="M101.902 173.182L26.9359 132.809C25.9025 132.253 25.9025 131.35 26.9359 130.801L171.844 52.7779C172.422 52.5041 173.061 52.3613 173.71 52.3613C174.358 52.3613 174.997 52.5041 175.575 52.7779L250.57 93.1446C251.596 93.7 251.596 94.5966 250.57 95.1519L105.605 173.182C105.03 173.452 104.396 173.592 103.753 173.592C103.11 173.592 102.476 173.452 101.902 173.182Z" fill="white"/>
<path d="M71.6959 150.639L80.444 145.929L77.5304 144.363L68.7822 149.067L71.6959 150.639Z" fill="#148CAC"/>
<path d="M176.645 94.1482L185.393 89.4378L182.472 87.8721L173.731 92.5825L176.645 94.1482Z" fill="#148CAC"/>
<path d="M194.134 84.7332L202.882 80.0227L199.968 78.457L191.22 83.1608L194.134 84.7332Z" fill="#148CAC"/>
<path d="M222.208 68.2397C222.548 68.3981 222.923 68.4806 223.303 68.4806C223.683 68.4806 224.057 68.3981 224.397 68.2397C224.529 68.1978 224.643 68.1184 224.724 68.0128C224.805 67.9073 224.849 67.7807 224.849 67.6509C224.849 67.5211 224.805 67.3946 224.724 67.289C224.643 67.1834 224.529 67.1041 224.397 67.0621C224.058 66.9006 223.683 66.8164 223.303 66.8164C222.922 66.8164 222.547 66.9006 222.208 67.0621C222.077 67.1041 221.962 67.1834 221.881 67.289C221.8 67.3946 221.757 67.5211 221.757 67.6509C221.757 67.7807 221.8 67.9073 221.881 68.0128C221.962 68.1184 222.077 68.1978 222.208 68.2397Z" fill="#263238"/>
<path d="M225.703 77.4813C226.381 77.8012 227.129 77.9678 227.889 77.9678C228.648 77.9678 229.396 77.8012 230.074 77.4813C231.279 76.8122 231.279 75.7751 230.074 75.1261C229.396 74.8063 228.648 74.6396 227.889 74.6396C227.129 74.6396 226.381 74.8063 225.703 75.1261C224.498 75.7751 224.498 76.8323 225.703 77.4813Z" fill="#263238"/>
<path d="M222.617 73.3859C223.421 72.951 223.378 72.2283 222.524 71.7667L208.171 64.0252C207.709 63.7943 207.195 63.669 206.671 63.6597C206.147 63.6504 205.628 63.7573 205.157 63.9717C204.353 64.4066 204.396 65.1292 205.25 65.5909L219.646 73.3324C220.103 73.5562 220.609 73.6775 221.125 73.6868C221.641 73.6961 222.152 73.5931 222.617 73.3859Z" fill="#263238"/>
<path d="M198.118 41.9922L198.606 41.7245C198.269 42.8663 198.104 44.0464 198.118 45.2306V46.8632C198.118 52.7245 205.66 67.699 208.437 72.9982C208.724 73.5536 204.914 77.334 204.914 77.334L209.442 74.8985C209.442 74.8985 220.759 66.2002 220.759 59.0542V57.4216C220.759 50.2422 215.693 41.6978 209.442 38.3322C206.284 36.6394 203.435 36.5792 201.383 37.8639L197.077 40.1655L198.118 41.9922ZM203.78 47.4721C203.78 44.1266 206.313 42.7416 209.442 44.4277C209.184 46.5889 213.418 53.32 215.097 53.5676C215.097 56.9131 212.564 58.2981 209.442 56.612C207.799 55.6083 206.432 54.2578 205.454 52.6698C204.475 51.0818 203.911 49.3011 203.808 47.4721H203.78Z" fill="#148CAC"/>
<path d="M193.46 49.4797C193.589 56.6524 205.272 77.3343 205.272 77.3343C205.272 77.3343 216.439 68.4888 216.317 61.316V59.6834C216.188 52.5107 210.971 44.0399 204.655 40.7747C198.34 37.5095 193.331 40.6677 193.46 47.8471V49.4797ZM199.129 50.0016C199.072 46.6561 201.584 45.2309 204.734 46.8635C206.399 47.8396 207.794 49.168 208.806 50.741C209.817 52.3139 210.416 54.0871 210.554 55.9164C210.619 59.2619 208.107 60.6871 204.949 59.0545C203.286 58.0764 201.893 56.7475 200.882 55.175C199.871 53.6024 199.271 51.8303 199.129 50.0016Z" fill="#148CAC"/>
<path opacity="0.1" d="M193.46 49.4797C193.589 56.6524 205.272 77.3343 205.272 77.3343C205.272 77.3343 216.439 68.4888 216.317 61.316V59.6834C216.188 52.5107 210.971 44.0399 204.655 40.7747C198.34 37.5095 193.331 40.6677 193.46 47.8471V49.4797ZM199.129 50.0016C199.072 46.6561 201.584 45.2309 204.734 46.8635C206.399 47.8396 207.794 49.168 208.806 50.741C209.817 52.3139 210.416 54.0871 210.554 55.9164C210.619 59.2619 208.107 60.6871 204.949 59.0545C203.286 58.0764 201.893 56.7475 200.882 55.175C199.871 53.6024 199.271 51.8303 199.129 50.0016Z" fill="black"/>
<path d="M84.011 145.14C91.2664 149.035 108.275 146.204 122.003 138.811L159.716 118.517C173.444 111.123 178.683 101.984 171.413 98.0961C164.144 94.2087 147.121 97.0523 133.378 104.439L95.7373 124.706C82.0159 132.093 76.7627 141.266 84.011 145.14Z" fill="#F0F0F0"/>
<path d="M89.1924 141.226L97.9333 136.516L95.0197 134.95L86.2787 139.654L89.1924 141.226Z" fill="#148CAC"/>
<path d="M106.681 131.812L115.429 127.102L112.509 125.536L103.768 130.24L106.681 131.812Z" fill="#148CAC"/>
<path d="M103.086 129.892C103.086 133.826 100.129 138.59 96.4764 140.597C94.5316 141.648 92.7805 141.681 91.5749 140.892C91.0888 140.536 90.6896 140.087 90.4038 139.576C90.1179 139.065 89.952 138.503 89.9171 137.928C90.1626 137.821 90.4021 137.702 90.6348 137.573C94.2876 135.613 97.2443 130.829 97.2443 126.867C97.2478 126.574 97.2286 126.281 97.1869 125.991C97.7344 125.721 98.3361 125.56 98.9538 125.519C99.5716 125.477 100.192 125.556 100.775 125.75C102.21 126.312 103.086 127.764 103.086 129.892Z" fill="#263238"/>
<path d="M103.682 121.81L103.56 121.743C101.722 120.833 99.2536 121 96.4763 122.486C90.8428 125.517 86.2713 132.89 86.2713 138.959C86.2713 142.01 87.4268 144.145 89.2926 145.135C91.1585 146.125 93.6775 145.958 96.4691 144.466C102.103 141.435 106.667 134.055 106.667 127.986C106.674 124.935 105.54 122.8 103.682 121.81ZM96.505 140.585C94.553 141.635 92.802 141.669 91.5963 140.873C90.5342 140.204 89.8883 138.865 89.8883 137.025C89.8883 133.098 92.8522 128.327 96.505 126.32C98.17 125.423 99.6842 125.269 100.811 125.731C102.203 126.286 103.079 127.738 103.079 129.879C103.086 133.84 100.129 138.624 96.4763 140.598L96.505 140.585Z" fill="#37474F"/>
<path d="M101.148 125.911L101.069 125.871C99.8779 125.275 98.2632 125.389 96.4763 126.346C92.8234 128.313 89.8595 133.097 89.8595 137.051C89.8595 139.058 90.5772 140.397 91.8187 141.066C93.0603 141.735 94.6893 141.601 96.4763 140.624C100.129 138.657 103.086 133.873 103.086 129.919C103.086 127.938 102.347 126.546 101.148 125.911ZM96.4763 139.192C94.9118 140.035 93.5052 140.062 92.5292 139.42C91.6824 138.864 91.1585 137.801 91.1585 136.329C91.259 134.609 91.7929 132.935 92.7168 131.444C93.6408 129.952 94.9287 128.685 96.4763 127.744C96.979 127.417 97.5567 127.203 98.1634 127.121C98.7702 127.038 99.3892 127.089 99.9712 127.269C101.091 127.717 101.794 128.881 101.794 130.614C101.694 132.333 101.16 134.006 100.236 135.497C99.3123 136.987 98.024 138.253 96.4763 139.192Z" fill="#148CAC"/>
<path d="M124.17 122.391L132.918 117.688L130.005 116.115L121.257 120.826L124.17 122.391Z" fill="#148CAC"/>
<path d="M141.667 112.977L150.408 108.274L147.494 106.701L138.746 111.412L141.667 112.977Z" fill="#148CAC"/>
<path d="M159.156 103.563L167.897 98.8595L164.983 97.2871L156.235 101.998L159.156 103.563Z" fill="#148CAC"/>
<path d="M115.631 59.7837C115.722 59.6698 115.85 59.5861 115.996 59.5447C116.142 59.5032 116.298 59.5062 116.442 59.5532C116.586 59.6002 116.71 59.6887 116.797 59.806C116.883 59.9232 116.927 60.0631 116.922 60.2052C116.979 60.5861 116.937 60.9739 116.801 61.3368C116.665 61.6997 116.438 62.0274 116.14 62.2928C115.566 62.7545 114.985 62.5671 114.848 61.8713C114.793 61.4904 114.835 61.1028 114.971 60.7399C115.107 60.3771 115.333 60.0494 115.631 59.7837Z" fill="#148CAC"/>
<path d="M122.362 62.7413L116.513 59.5898L115.229 62.4737L121.099 65.6318L122.362 62.7413Z" fill="#148CAC"/>
<path d="M121.465 62.9218C122.039 62.4669 122.613 62.6542 122.757 63.3501C122.81 63.7303 122.766 64.1169 122.629 64.4784C122.491 64.8399 122.265 65.1662 121.967 65.431C121.393 65.8926 120.812 65.7053 120.676 65.0094C120.623 64.6282 120.667 64.2408 120.805 63.8783C120.942 63.5158 121.168 63.1882 121.465 62.9218Z" fill="#148CAC"/>
<path d="M166.418 89.311C166.418 89.4448 166.418 89.5653 166.418 89.6991C166.418 89.9667 166.418 90.241 166.418 90.5154C165.256 90.0537 163.742 90.2076 162.077 91.1042C158.424 93.0713 155.46 97.8554 155.46 101.81C155.46 103.643 156.106 104.968 157.168 105.657C156.87 105.855 156.561 106.038 156.242 106.206L155.905 106.366L154.893 109.919L149.037 106.875C147.185 105.878 146.044 103.75 146.044 100.712C146.044 94.6437 150.609 87.2702 156.242 84.2325C159.027 82.7338 161.546 82.5799 163.419 83.5634L169.16 86.561L169.282 86.6279L166.418 89.311Z" fill="#455A64"/>
<path d="M169.275 86.5679L169.153 86.5009C167.316 85.591 164.847 85.7582 162.07 87.2436C156.436 90.2747 151.865 97.6481 151.865 103.717C151.865 106.768 153.02 108.902 154.886 109.893C156.752 110.883 159.271 110.716 162.063 109.224C167.696 106.193 172.26 98.8124 172.26 92.7436C172.282 89.6925 171.127 87.5581 169.275 86.5679ZM162.099 105.343C160.147 106.393 158.395 106.427 157.19 105.63C156.128 104.961 155.482 103.623 155.482 101.783C155.482 97.8555 158.446 93.0849 162.099 91.0776C163.763 90.181 165.278 90.0271 166.44 90.4888C167.833 91.0441 168.708 92.4961 168.708 94.6372C168.694 98.5982 165.723 103.382 162.07 105.343H162.099Z" fill="#37474F"/>
<path d="M168.693 94.6633C168.693 98.5976 165.736 103.362 162.084 105.369C160.139 106.419 158.388 106.453 157.182 105.663C156.696 105.307 156.297 104.859 156.011 104.348C155.725 103.837 155.559 103.275 155.524 102.699C155.77 102.592 156.009 102.474 156.242 102.345C159.895 100.384 162.851 95.6 162.851 91.6389C162.855 91.3459 162.836 91.0529 162.794 90.7624C163.342 90.4924 163.943 90.3315 164.561 90.29C165.179 90.2486 165.799 90.3274 166.382 90.5216C167.803 91.0836 168.693 92.5222 168.693 94.6633Z" fill="#263238"/>
<path d="M166.742 90.6689L166.663 90.6221C165.471 90.0333 163.85 90.1403 162.07 91.1038C158.417 93.071 155.453 97.8483 155.453 101.809C155.453 103.817 156.171 105.155 157.412 105.824C158.654 106.493 160.283 106.353 162.07 105.376C165.723 103.415 168.679 98.6312 168.679 94.6701C168.694 92.6963 167.976 91.3113 166.742 90.6689ZM162.07 103.944C160.498 104.794 159.092 104.82 158.123 104.178C157.269 103.623 156.752 102.559 156.752 101.087C156.853 99.367 157.386 97.6934 158.31 96.2019C159.234 94.7104 160.522 93.4429 162.07 92.5022C163.405 91.7796 164.625 91.6525 165.558 92.0272C166.677 92.4755 167.38 93.6397 167.38 95.3727C167.281 97.0901 166.748 98.7614 165.825 100.251C164.902 101.74 163.616 103.005 162.07 103.944Z" fill="#148CAC"/>
<path d="M156.235 96.6647L172.741 87.7791C174.657 86.742 168.435 80.6866 163.806 80.2785C161.258 79.9914 158.673 80.2196 156.228 80.9476C156.228 80.9476 159.751 85.1562 159.148 87.5449C158.546 89.9336 156.235 96.6647 156.235 96.6647Z" fill="#148CAC"/>
<path d="M132.919 71.5537C132.919 71.5537 156.845 82.808 157.878 83.4837C158.912 84.1595 157.878 92.0081 156.235 96.665C154.592 101.322 152.065 108.481 151.054 110.489C150.042 112.496 148.721 113.245 146.296 114.55L129.072 123.83L105.756 126.48L96.4979 121.796L98.9092 107.672C98.9092 107.672 123.69 95.3803 127.084 93.5537C130.479 91.727 140.518 83.1559 132.919 71.5537Z" fill="#148CAC"/>
<path opacity="0.2" d="M132.919 71.5537C132.919 71.5537 156.845 82.808 157.878 83.4837C158.912 84.1595 157.878 92.0081 156.235 96.665C154.592 101.322 152.065 108.481 151.054 110.489C150.042 112.496 148.721 113.245 146.296 114.55L129.072 123.83L105.756 126.48L96.4979 121.796L98.9092 107.672C98.9092 107.672 123.69 95.3803 127.084 93.5537C130.479 91.727 140.518 83.1559 132.919 71.5537Z" fill="black"/>
<path d="M158.338 93.9818C160.491 88.5888 162.098 84.1192 161.826 81.1016C161.495 77.5219 160.06 74.598 153.73 73.126C147.401 71.6539 138.552 71.6807 138.552 71.6807L135.861 73.1326C135.861 73.1326 154.061 82.9684 156.127 84.0389C157.39 84.708 158.74 87.6588 156.264 96.6715L156.687 96.899C156.895 97.0195 157.649 95.7147 158.338 93.9818Z" fill="#148CAC"/>
<path opacity="0.3" d="M158.338 93.9818C160.491 88.5888 162.098 84.1192 161.826 81.1016C161.495 77.5219 160.06 74.598 153.73 73.126C147.401 71.6539 138.552 71.6807 138.552 71.6807L135.861 73.1326C135.861 73.1326 154.061 82.9684 156.127 84.0389C157.39 84.708 158.74 87.6588 156.264 96.6715L156.687 96.899C156.895 97.0195 157.649 95.7147 158.338 93.9818Z" fill="white"/>
<path d="M144.551 77.8294L147.494 76.2637C147.494 76.2637 147.322 66.7558 143.03 64.4474C138.738 62.139 124.17 63.7114 124.17 63.7114L121.257 65.2771L144.551 77.8294Z" fill="#148CAC"/>
<path d="M135.007 66.6224C133.608 67.3784 133.608 68.5962 135.007 69.3456C135.792 69.7181 136.66 69.9123 137.54 69.9123C138.421 69.9123 139.289 69.7181 140.074 69.3456C141.466 68.5962 141.466 67.3718 140.074 66.6224C139.288 66.253 138.42 66.0605 137.54 66.0605C136.66 66.0605 135.793 66.253 135.007 66.6224Z" fill="#F0F0F0"/>
<path d="M139.485 71.1647C138.502 71.7 138.502 72.5631 139.485 73.0917C140.04 73.3565 140.655 73.4946 141.279 73.4946C141.903 73.4946 142.518 73.3565 143.073 73.0917C144.064 72.5631 144.064 71.7 143.073 71.1647C142.517 70.9029 141.902 70.7666 141.279 70.7666C140.656 70.7666 140.041 70.9029 139.485 71.1647Z" fill="#F0F0F0"/>
<path d="M128.211 65.4118C127.22 65.9403 127.22 66.8035 128.211 67.3387C128.767 67.6005 129.382 67.7368 130.005 67.7368C130.628 67.7368 131.243 67.6005 131.799 67.3387C132.789 66.8035 132.789 65.9403 131.799 65.4118C131.244 65.1469 130.629 65.0088 130.005 65.0088C129.381 65.0088 128.766 65.1469 128.211 65.4118Z" fill="#F0F0F0"/>
<path d="M145.011 75.0733C145.585 74.6117 146.16 74.799 146.303 75.4949C146.356 75.8762 146.312 76.2637 146.175 76.6263C146.038 76.9889 145.811 77.3164 145.514 77.5825C145.422 77.6963 145.294 77.78 145.148 77.8215C145.002 77.8629 144.846 77.8599 144.702 77.813C144.558 77.766 144.434 77.6774 144.348 77.5602C144.261 77.4429 144.217 77.3031 144.222 77.1609C144.167 76.7795 144.209 76.3914 144.347 76.0284C144.484 75.6655 144.712 75.3381 145.011 75.0733Z" fill="#148CAC"/>
<path d="M151.707 78.0304L145.851 74.8789L144.573 77.7627L150.436 80.9142L151.707 78.0304Z" fill="#148CAC"/>
<path d="M150.802 78.2104C150.894 78.0966 151.022 78.0129 151.168 77.9714C151.314 77.93 151.47 77.933 151.614 77.9799C151.758 78.0269 151.882 78.1155 151.969 78.2327C152.055 78.35 152.099 78.4898 152.094 78.632C152.149 79.0133 152.106 79.4014 151.969 79.7642C151.831 80.1271 151.604 80.4545 151.305 80.7196C150.731 81.1812 150.157 80.9872 150.013 80.298C149.96 79.9167 150.003 79.529 150.14 79.1663C150.277 78.8037 150.504 78.4762 150.802 78.2104Z" fill="#148CAC"/>
<path d="M150.802 78.2104C150.894 78.0966 151.022 78.0129 151.168 77.9714C151.314 77.93 151.47 77.933 151.614 77.9799C151.758 78.0269 151.882 78.1155 151.969 78.2327C152.055 78.35 152.099 78.4898 152.094 78.632C152.149 79.0133 152.106 79.4014 151.969 79.7642C151.831 80.1271 151.604 80.4545 151.305 80.7196C150.731 81.1812 150.157 80.9872 150.013 80.298C149.96 79.9167 150.003 79.529 150.14 79.1663C150.277 78.8037 150.504 78.4762 150.802 78.2104Z" fill="black"/>
<path d="M100.826 124.54C100.826 124.673 100.826 124.794 100.826 124.928C100.826 125.195 100.826 125.47 100.826 125.744C99.6629 125.282 98.1487 125.436 96.5196 126.333C92.8668 128.3 89.9029 133.084 89.9029 137.038C89.9029 138.872 90.5488 140.196 91.6109 140.886C91.3127 141.083 91.0037 141.266 90.6851 141.434L90.3478 141.595L89.336 145.148L83.4799 142.103C81.6284 141.106 80.4873 138.979 80.4873 135.941C80.4873 129.872 85.0516 122.499 90.6851 119.461C93.4696 117.962 95.9886 117.808 97.8616 118.792L103.603 121.79L103.725 121.856L100.826 124.54Z" fill="#455A64"/>
<path d="M83.3577 113.921L78.9872 128.046L87.7353 132.756L92.2637 118.718L83.3577 113.921Z" fill="#148CAC"/>
<path opacity="0.2" d="M83.3577 113.921L78.9872 128.046L87.7353 132.756L92.2637 118.718L83.3577 113.921Z" fill="black"/>
<path d="M83.3578 113.921C83.3578 113.921 88.3167 117.849 92.2638 118.718C97.4452 119.889 105.684 120.017 108.605 120.204C113.068 120.492 116.441 120.485 118.02 119.956C120.066 119.287 125.563 116.31 127.084 115.493C129.998 113.928 131.239 107.765 123.209 106.079C117.779 105.03 112.248 104.503 106.703 104.507L83.3578 113.921Z" fill="#148CAC"/>
<path d="M132.811 112.114C132.561 112.696 132.392 113.305 132.308 113.927C132.077 114.573 132.023 115.263 132.151 115.934C132.698 116.778 133.559 117.404 134.569 117.694C135.297 117.845 136.051 117.854 136.783 117.722C137.515 117.59 138.21 117.318 138.825 116.924C140.31 116.095 141.43 115.091 143.54 114.529C145.048 114.231 146.468 113.631 147.702 112.769C148.872 111.893 150.436 109.471 148.197 108.909C145.958 108.347 141.093 110.327 136.657 110.508L132.811 112.114Z" fill="#37474F"/>
<path d="M132.811 109.531V112.622C132.947 112.97 133.183 113.275 133.493 113.506C133.803 113.736 134.176 113.882 134.569 113.927C134.929 113.976 135.297 113.94 135.638 113.82C136.176 113.629 136.642 113.295 136.978 112.86C137.315 112.425 137.508 111.907 137.533 111.371L137.662 109.531H132.811Z" fill="#FFA8A7"/>
<path d="M139.126 90.415C139.126 94.2624 137.964 110.896 137.964 110.896C137.964 110.896 136.277 112.903 132.61 110.896L131.376 92.3086L139.126 90.415Z" fill="#37474F"/>
<path d="M119.893 106.808L131.376 100.639C131.846 100.409 132.24 100.063 132.515 99.6392C132.79 99.2152 132.935 98.7292 132.935 98.2338C132.935 97.7383 132.79 97.2523 132.515 96.8284C132.24 96.4044 131.846 96.0586 131.376 95.8284L122.821 91.225C122.34 90.9975 121.808 90.8789 121.268 90.8789C120.728 90.8789 120.196 90.9975 119.714 91.225L108.232 97.394C107.763 97.6259 107.371 97.9723 107.098 98.396C106.825 98.8198 106.68 99.305 106.68 99.7995C106.68 100.294 106.825 100.779 107.098 101.203C107.371 101.627 107.763 101.973 108.232 102.205L116.786 106.808C117.268 107.036 117.8 107.154 118.34 107.154C118.88 107.154 119.412 107.036 119.893 106.808Z" fill="#148CAC"/>
<path d="M119.893 106.808L131.376 100.639C131.846 100.409 132.24 100.063 132.515 99.6392C132.79 99.2152 132.935 98.7292 132.935 98.2338C132.935 97.7383 132.79 97.2523 132.515 96.8284C132.24 96.4044 131.846 96.0586 131.376 95.8284L122.821 91.225C122.34 90.9975 121.808 90.8789 121.268 90.8789C120.728 90.8789 120.196 90.9975 119.714 91.225L108.232 97.394C107.763 97.6259 107.371 97.9723 107.098 98.396C106.825 98.8198 106.68 99.305 106.68 99.7995C106.68 100.294 106.825 100.779 107.098 101.203C107.371 101.627 107.763 101.973 108.232 102.205L116.786 106.808C117.268 107.036 117.8 107.154 118.34 107.154C118.88 107.154 119.412 107.036 119.893 106.808Z" fill="white"/>
<path d="M108.232 99.0668L116.786 103.67C117.268 103.898 117.8 104.016 118.34 104.016C118.88 104.016 119.412 103.898 119.894 103.67L131.376 97.5011C131.563 97.4418 131.726 97.3292 131.842 97.1792C131.957 97.0292 132.019 96.8493 132.019 96.6647C132.019 96.4802 131.957 96.3002 131.842 96.1502C131.726 96.0002 131.563 95.8877 131.376 95.8284L122.822 91.225C122.34 90.9975 121.808 90.8789 121.268 90.8789C120.728 90.8789 120.196 90.9975 119.714 91.225L108.232 97.394C108.044 97.4533 107.882 97.5659 107.766 97.7159C107.651 97.8659 107.589 98.0459 107.589 98.2304C107.589 98.415 107.651 98.5949 107.766 98.7449C107.882 98.8949 108.044 99.0075 108.232 99.0668Z" fill="#148CAC"/>
<path d="M115.228 58.1181L113.772 63.7184L107.514 64.0731L108.863 56.3115L115.228 58.1181Z" fill="#FFA8A7"/>
<path d="M121.328 53.9023C121.328 53.9023 122.046 56.271 121.752 56.4048C121.3 56.469 120.84 56.469 120.388 56.4048L121.328 53.9023Z" fill="#F28F8F"/>
<path d="M120.13 46.3416C121.135 47.4456 122.053 49.2589 121.343 53.7017C120.568 58.5594 119.606 59.1214 118.831 59.5898C117.819 60.2053 113.772 59.8775 112.631 59.1013C111.26 58.1713 109.143 55.2206 108.64 52.31C108.052 48.8909 109.279 45.0971 111.977 44.4481C115.774 43.5314 119.276 45.4049 120.13 46.3416Z" fill="#FFA8A7"/>
<path d="M108.231 57.8838C109.2 58.8205 111.188 59.0748 112.437 59.2889C113.686 59.503 117.525 59.7372 118.659 57.1879C119.793 54.6386 119.018 52.8053 120.41 52.1897C121.802 51.5742 123.194 51.1727 123.56 50.8515C123.926 50.5304 123.934 46.3351 120.195 44.1605C116.456 41.986 110.729 41.4842 106.961 45.8935C104.105 49.2992 105.275 55.0066 108.231 57.8838Z" fill="#455A64"/>
<path d="M111.999 59.3223C112.968 59.4026 116.032 58.9543 116.958 57.7767C117.884 56.5991 118.257 54.4914 118.393 53.3874C118.406 52.9526 118.577 52.5348 118.878 52.2027C119.18 51.8707 119.593 51.6443 120.051 51.5608C120.977 51.2864 123.022 50.3497 123.022 50.3497V49.8278C123.682 49.7892 124.343 49.7892 125.003 49.8278C125.433 49.9014 125.197 50.4969 124.106 51.0121C123.015 51.5273 120.022 52.5243 119.563 52.8655C119.104 53.2068 118.889 54.6453 118.523 56.1776C118.157 57.7098 117.023 59.9981 111.999 59.3223Z" fill="#37474F"/>
<path d="M120.611 65.6589L124.199 63.7386C124.543 62.7684 123.991 62.2799 123.015 62.3401C122.039 62.4004 122.34 61.5171 121.745 61.2696C120.962 60.935 120.517 61.1224 120.166 60.9685C119.814 60.8146 119.663 60.4265 119.204 60.3797C117.152 60.199 115.752 62.9289 115.752 62.9289L120.611 65.6589Z" fill="#F28F8F"/>
<path d="M96.2539 90.2273C96.2539 90.2273 112.107 82.9007 114.87 81.7164C117.633 80.5321 121.967 78.8125 124.271 78.8125C125.171 78.8819 126.014 79.2516 126.646 79.8538C127.277 80.456 127.655 81.2504 127.708 82.0911C127.738 83.3818 127.659 84.6727 127.472 85.9518C123.116 87.284 118.665 88.3281 114.152 89.0765C107.557 90.147 96.2539 90.2273 96.2539 90.2273Z" fill="#37474F"/>
<path d="M97.9762 85.9919C97.9762 89.0296 97.6676 92.1878 99.024 94.4092C100.38 96.6306 107.729 101.769 114.647 100.692C119.168 99.9827 132.588 94.2218 132.588 94.2218C132.588 94.2218 139.098 91.9937 139.126 90.408C139.169 88.0728 138.997 84.7808 133.32 84.9213C128.146 85.0485 112.882 88.0193 112.882 88.0193L97.9762 85.9919Z" fill="#455A64"/>
<path d="M102.404 61.9248C104.859 59.5361 106.516 59.3354 107.693 59.6298C110.398 60.3516 113.017 61.3291 115.509 62.5471C115.509 62.5471 114.561 71.0981 119.047 73.5604V86.8889C119.047 86.8889 118.91 88.3341 116.958 89.7727C115.236 91.0373 111.339 92.3153 106.689 91.954C101.163 91.5257 97.9764 85.9923 97.9764 85.9923C97.9764 85.9923 97.8329 75.0927 98.6151 70.7636C99.5337 65.7119 101.557 62.7545 102.404 61.9248Z" fill="#455A64"/>
<path d="M119.046 74.2095C119.046 74.2095 116.334 72.2023 115.508 69.5928C115.508 69.5928 115.831 73.6877 119.046 75.7619V74.2095Z" fill="#37474F"/>
<path d="M144.157 80.4992C145.446 80.5486 146.713 80.1823 147.745 79.4621C147.745 79.4621 148.994 77.2005 150.53 77.3945C150.53 77.3945 150.803 76.4311 150.171 76.1166C149.54 75.8021 149.267 75.8891 149.009 75.5545C148.75 75.22 148.721 74.5977 147.573 74.5977C147.1 74.5977 147.164 74.2832 146.016 74.1561C144.868 74.029 143.734 76.498 142.894 76.498L144.157 80.4992Z" fill="#FFA8A7"/>
<path d="M115.508 62.5479C119.448 63.1166 120.876 64.2072 122.312 65.445C123.747 66.6829 132.531 74.8994 132.531 74.8994L143.167 76.3246C143.726 76.7465 144.136 77.3153 144.344 77.9572C144.774 79.1214 144.387 80.3927 143.978 80.6938C143.978 80.6938 133.428 81.2826 131.354 80.9146C129.28 80.5466 119.011 74.1902 119.011 74.1902C118.029 73.5 117.206 72.6335 116.589 71.6417C115.973 70.6499 115.576 69.553 115.422 68.4158C114.755 64.3812 115.508 62.5479 115.508 62.5479Z" fill="#455A64"/>
<path d="M106.05 97.8887L89.752 116.436C89.571 116.457 89.3889 116.469 89.2066 116.47C88.5603 116.479 87.9216 116.339 87.3478 116.061L73.5833 108.648L72.6504 108.146C72.1409 107.872 71.7174 106.748 71.7174 105.637V102.512C71.7169 99.3023 72.6225 85.149 74.3433 82.3689C76.0641 79.5889 78.5394 77.2801 81.5205 75.6746L97.9547 66.8291L115.444 87.2433L106.05 97.8887Z" fill="#148CAC"/>
<g opacity="0.1">
<path opacity="0.1" d="M105.762 97.6586L89.7351 115.967C89.5572 115.988 89.3781 115.999 89.1987 116C88.5632 116.009 87.9352 115.87 87.3709 115.597L73.835 108.279L72.9176 107.783C72.4165 107.513 72.0002 106.403 72.0002 105.307V102.222C71.9996 99.054 72.8902 85.0833 74.5824 82.3392C76.2746 79.595 78.7088 77.316 81.6404 75.7313L97.8016 67L115 87.1506L105.762 97.6586Z" fill="black"/>
</g>
<path d="M100.43 93.2854L115.422 76.2502L97.933 66.8359L81.506 75.6747C79.3811 76.8217 77.5065 78.3311 75.9801 80.1242L100.43 93.2854Z" fill="#148CAC"/>
<path d="M115.422 100.927C115.422 102.038 115.006 103.162 114.489 103.436L113.556 103.938L91.0508 116.056C90.6413 116.261 90.1929 116.391 89.7303 116.437C89.5494 116.458 89.3673 116.469 89.1849 116.47V111.927C89.1844 108.717 90.0908 94.5625 91.8129 91.7823C93.5351 89.002 96.0123 86.6937 98.9952 85.0896L100.854 84.0927L115.422 76.2441V100.927Z" fill="#148CAC"/>
<g opacity="0.2">
<path opacity="0.2" d="M116 100.544C116 101.649 115.572 102.766 115.04 103.039L114.08 103.538L90.9205 115.587C90.4991 115.792 90.0376 115.921 89.5616 115.967C89.3755 115.988 89.188 115.999 89.0004 116V111.482C88.9998 108.29 89.9325 94.2153 91.7048 91.4507C93.477 88.6861 96.0262 86.3908 99.0958 84.7957L101.009 83.8044L116 76V100.544Z" fill="black"/>
</g>
<path d="M120.252 123.877L129.058 123.85L141.66 117.065L129.316 125.382L120.022 125.503L120.252 123.877Z" fill="#E0E0E0"/>
<path d="M98.8733 135.559C98.8733 135.559 114.748 129.979 116.097 129.323C117.68 128.418 119.183 127.396 120.589 126.265C120.876 125.911 121.011 125.47 120.967 125.028C120.924 124.586 120.704 124.176 120.353 123.877C120.353 123.877 113.894 123.602 112.236 124.077C111.31 124.338 96.3687 128.808 96.3687 128.808L98.8733 135.559Z" fill="#E0E0E0"/>
<path d="M98.1628 129.323C96.8495 128.273 95.5291 128.708 95.2061 130.287C95.0828 131.158 95.1816 132.044 95.4946 132.873C95.8076 133.702 96.3259 134.45 97.0074 135.057C98.3207 136.108 99.6412 135.68 99.9641 134.094C100.087 133.223 99.9878 132.337 99.6748 131.508C99.3619 130.679 98.8439 129.931 98.1628 129.323Z" fill="#455A64"/>
</svg>
