<svg width="26" height="26" viewBox="0 0 26 26" fill="none" xmlns="http://www.w3.org/2000/svg">
<path d="M25.1637 17.3279C24.9451 16.6775 24.5947 16.1026 24.2896 15.5022C23.6656 14.2739 23.0284 13.0535 22.3967 11.8302C21.8734 10.8165 21.351 9.80132 20.8277 8.78764C20.1278 7.43171 19.4275 6.07579 18.7267 4.72087C18.5025 4.28757 18.3109 3.82876 18.0465 3.42699C17.9865 3.33543 17.9252 3.24637 17.8639 3.15981C17.8228 3.10177 17.7807 3.04473 17.7391 2.98869C17.718 2.96017 17.6974 2.93216 17.6759 2.90514C17.6124 2.82258 17.5479 2.74202 17.4825 2.66347C16.2849 1.22449 14.7872 0.5 12.9991 0.5C12.732 0.5 12.4584 0.516016 12.178 0.548538C11.1707 0.665117 10.2586 1.0814 9.43156 1.71783C8.80716 2.19866 8.26602 2.77705 7.86851 3.49003C7.46871 4.20602 7.11556 4.95253 6.74138 5.68603C6.16455 6.8173 5.58773 7.94857 5.01044 9.07934C4.32566 10.4197 3.6395 11.7602 2.95517 13.1006C2.37606 14.2353 1.80105 15.3726 1.21828 16.5054C0.543556 17.8183 0.326293 19.2172 0.642839 20.6797C1.1172 22.8697 2.38154 24.3047 4.31147 25.0367C5.10192 25.3364 5.90976 25.4655 6.72811 25.4655C7.13477 25.4655 7.54372 25.4335 7.9545 25.3754C9.10541 25.2113 10.1269 24.731 10.9928 23.8794C11.6789 23.2039 12.2498 22.4304 12.6117 21.4918C12.7754 21.067 12.8651 20.6242 12.8504 20.1599C12.8463 19.9913 12.8308 19.8231 12.802 19.657C12.7036 19.0936 12.4708 18.5948 12.1785 18.126C11.8221 17.5546 11.3981 17.0427 11.001 16.5064C10.6246 15.9985 10.2751 15.4737 10.0445 14.8648C9.62094 13.7465 9.58984 12.5957 9.82999 11.4299C10.185 9.70626 10.9361 8.20224 11.9804 6.86483C12.2553 6.51309 12.5586 6.19387 12.8633 5.87365C12.8322 5.84764 12.7974 5.84214 12.7622 5.84214C12.7475 5.84214 12.7324 5.84313 12.7178 5.84413C12.3367 5.86264 11.9616 5.91718 11.5902 6.00624L11.5898 6.00674C11.4768 6.03326 11.3651 6.06378 11.2531 6.09781C10.26 6.39601 9.38079 6.92688 8.6187 7.67939C7.9051 8.38437 7.35571 9.22344 6.9797 10.1951C6.69151 10.9391 6.51678 11.7146 6.47424 12.5202C6.41981 13.5469 6.54375 14.5476 6.87905 15.5152C7.19835 16.4353 7.66952 17.2484 8.28889 17.9584C8.7079 18.4387 9.18271 18.8455 9.71014 19.1772C10.2774 19.535 10.878 19.8011 11.517 19.9632C11.6872 20.0068 11.8578 20.0403 12.0303 20.0673C12.033 20.1058 12.0353 20.1459 12.0362 20.1859V20.1914C12.044 20.4416 12.0092 20.6912 11.9283 20.9514H11.9287C11.9264 20.9589 11.9237 20.9669 11.9209 20.9744C11.9186 20.9829 11.9159 20.9909 11.9127 20.9994C11.9077 21.0155 11.9022 21.0315 11.8962 21.048C11.8853 21.08 11.8734 21.1125 11.8606 21.1455C11.5756 21.8845 11.1131 22.562 10.4471 23.2175C9.7234 23.9294 8.87304 24.3462 7.84838 24.4918C7.46185 24.5469 7.08446 24.5749 6.72675 24.5749C5.95322 24.5749 5.25014 24.4508 4.57679 24.1956C2.86369 23.5452 1.83537 22.3283 1.4342 20.4746C1.17025 19.2568 1.33172 18.101 1.9273 16.9427C2.29737 16.2217 2.67111 15.4872 3.03203 14.7772C3.24245 14.3634 3.45333 13.9487 3.66467 13.5354C4.03839 12.8029 4.4121 12.0719 4.78628 11.3404C5.09734 10.7315 5.40841 10.123 5.71947 9.51363C6.22265 8.52846 6.72537 7.54279 7.2281 6.55661L7.45085 6.12032C7.56795 5.89066 7.68416 5.65851 7.79623 5.43336C8.05285 4.91801 8.29575 4.43167 8.56244 3.95385C8.87624 3.39047 9.31399 2.89713 9.89905 2.44582C10.6479 1.86893 11.4425 1.5287 12.2622 1.43364C12.5124 1.40462 12.7594 1.39011 12.9973 1.39011C14.8179 1.39011 16.2524 2.22617 17.3827 3.94684C17.5332 4.1755 17.6645 4.44619 17.8036 4.73238C17.8708 4.87148 17.9408 5.01507 18.0154 5.15917C18.7162 6.51359 19.4165 7.86951 20.1164 9.22493C20.4041 9.78181 20.6909 10.3392 20.9782 10.8956C21.2138 11.3534 21.4493 11.8107 21.6858 12.268C21.8798 12.6433 22.0742 13.018 22.2677 13.3933C22.6986 14.2253 23.1446 15.0854 23.5755 15.934C23.6574 16.0956 23.7416 16.2537 23.823 16.4063C24.0471 16.8266 24.2589 17.2239 24.3971 17.6352C25.2282 20.1038 24.2036 22.8217 22.0147 23.9559C21.4407 24.2536 20.8245 24.4453 20.1315 24.5429C19.809 24.5879 19.4769 24.6104 19.1429 24.6104C18.847 24.6104 18.5419 24.5924 18.2358 24.5569C16.7666 24.3862 15.5859 23.6552 14.6257 22.3223C14.5192 22.1742 14.4249 22.0331 14.3408 21.8965C14.3298 21.8795 14.3197 21.862 14.3097 21.8455C14.2946 21.8205 14.2799 21.7955 14.2658 21.7705C14.252 21.7479 14.2397 21.7254 14.2273 21.7029C14.198 21.6514 14.1702 21.5998 14.145 21.5483C14.1386 21.5358 14.1326 21.5233 14.1267 21.5113C14.1148 21.4878 14.1029 21.4638 14.0919 21.4402C14.0832 21.4217 14.0745 21.4032 14.0663 21.3852C14.0544 21.3597 14.0434 21.3347 14.0334 21.3097C14.0197 21.2781 14.0068 21.2466 13.9949 21.2156C13.9803 21.1781 13.9666 21.1415 13.9538 21.1045C13.9446 21.079 13.9359 21.054 13.9282 21.0285C13.925 21.018 13.9213 21.0074 13.9186 20.9974C13.9163 20.9914 13.9144 20.9849 13.9126 20.9789H13.9131C13.8893 20.9024 13.8692 20.8263 13.8522 20.7503C13.8074 20.5471 13.7887 20.366 13.796 20.1944C13.7969 20.1614 13.7992 20.1283 13.8019 20.0958C13.8756 20.0863 13.9492 20.0748 14.0224 20.0618C14.9487 19.8972 15.8064 19.54 16.5932 18.9761C17.2647 18.4952 17.8356 17.8983 18.3049 17.1884C18.7404 16.5314 19.0652 15.8129 19.2751 15.0334C19.5308 14.0827 19.615 13.1156 19.5011 12.1324C19.3932 11.1983 19.1388 10.3147 18.7134 9.49162C18.342 8.77413 17.8768 8.13919 17.3082 7.59833C16.7903 7.10599 16.2158 6.70973 15.5827 6.41553C15.1568 6.21789 14.7223 6.06829 14.2767 5.97272C13.8856 5.88666 13.4867 5.84264 13.0796 5.84264H13.0536C13.0106 5.84264 12.9675 5.84063 12.9305 5.86915C13.5842 6.43403 14.1738 7.06797 14.6651 7.80497C15.5951 9.20092 16.2346 10.7245 16.3352 12.4761C16.3787 13.2427 16.2702 13.9852 16.0122 14.7007C15.7529 15.4211 15.3266 16.0201 14.8682 16.5985C14.4446 17.1323 13.9972 17.6442 13.6281 18.2281C13.2603 18.8099 13.0105 19.4384 12.9826 20.1559C12.9712 20.428 13.0028 20.6957 13.0609 20.9594C13.221 21.6829 13.5723 22.2963 13.9872 22.8717C15.053 24.3522 16.4249 25.2413 18.1503 25.442C18.4815 25.4805 18.8127 25.5 19.1439 25.5C19.508 25.5 19.8725 25.4755 20.2362 25.4244C20.9773 25.3204 21.6886 25.1097 22.3647 24.7595C24.9496 23.4226 26.1326 20.2054 25.1637 17.3279ZM11.7727 19.1127C11.7494 19.1072 11.7265 19.1011 11.7032 19.0956C11.1611 18.9586 10.6282 18.7259 10.1177 18.4052C9.65937 18.117 9.2431 17.7597 8.87989 17.344C8.336 16.7205 7.91927 15.999 7.64207 15.199C7.35846 14.3824 7.23954 13.4988 7.28894 12.5722C7.32462 11.8903 7.47373 11.2083 7.73081 10.5423C8.05696 9.70026 8.54002 8.95926 9.16579 8.34084C9.61865 7.89403 10.1195 7.53678 10.6639 7.2721C10.6525 7.29062 10.6406 7.30813 10.6291 7.32664C10.6067 7.36167 10.5848 7.39669 10.5628 7.43221C10.5203 7.50026 10.4786 7.56931 10.4375 7.63886C10.3945 7.71191 10.3515 7.78495 10.3103 7.8585C10.2879 7.89753 10.2659 7.93756 10.244 7.97709C10.2229 8.01561 10.2014 8.05364 10.1808 8.09217C9.9814 8.46342 9.80346 8.84167 9.64702 9.22643C9.63466 9.25696 9.62277 9.28648 9.61088 9.3165C9.56102 9.44108 9.5139 9.56667 9.46907 9.69226C9.45534 9.72928 9.44253 9.7663 9.42926 9.80383C9.42423 9.81884 9.41876 9.83435 9.41419 9.84886C9.40321 9.88088 9.39222 9.91241 9.38216 9.94443C9.357 10.0185 9.33368 10.093 9.31035 10.1671C9.30532 10.1831 9.30073 10.1991 9.2957 10.2151C9.28426 10.2526 9.27329 10.2892 9.26277 10.3267C9.25042 10.3692 9.23761 10.4122 9.22572 10.4548C9.20193 10.5403 9.17905 10.6264 9.15663 10.7124C9.14565 10.756 9.13515 10.7985 9.12463 10.842C9.11548 10.8791 9.10677 10.9151 9.09854 10.9521C9.09488 10.9676 9.09077 10.9836 9.08757 10.9991C9.07979 11.0322 9.07248 11.0662 9.0647 11.1002C9.05509 11.1447 9.04548 11.1893 9.03633 11.2338C8.74403 12.6503 8.83048 13.9862 9.29295 15.206C9.57199 15.943 9.99375 16.5604 10.3693 17.0673C10.4864 17.2254 10.6053 17.381 10.7211 17.5316C11.0056 17.9033 11.2746 18.2551 11.507 18.6273C11.5239 18.6548 11.5408 18.6819 11.5563 18.7089C11.5728 18.7364 11.5884 18.7624 11.6035 18.7889C11.636 18.846 11.6671 18.9015 11.6959 18.9565C11.7073 18.9791 11.7183 19.0006 11.7288 19.0226C11.7416 19.0481 11.754 19.0736 11.7659 19.0986C11.7681 19.1032 11.7704 19.1077 11.7723 19.1122H11.7727V19.1127ZM14.0979 19.0896C14.1075 19.0696 14.1184 19.0486 14.1294 19.0281C14.1349 19.0181 14.1409 19.0071 14.1464 18.9966C14.1587 18.9736 14.172 18.9501 14.1852 18.9265C14.2026 18.895 14.2209 18.8635 14.2401 18.832C14.2594 18.7999 14.2786 18.7684 14.2987 18.7364C14.5521 18.3351 14.8545 17.9619 15.1751 17.5676C15.2767 17.443 15.381 17.3134 15.4839 17.1833C15.9697 16.5709 16.4619 15.886 16.7707 15.0294C17.0726 14.1913 17.1997 13.3142 17.1485 12.4216C17.047 10.6539 16.4505 8.97227 15.3238 7.28112C15.3183 7.27261 15.3124 7.26461 15.3069 7.2561C15.8366 7.50777 16.3302 7.84949 16.7743 8.27178C17.2606 8.7346 17.6746 9.29349 18.0048 9.93192C18.3653 10.6284 18.5972 11.4064 18.6937 12.2455C18.7903 13.0791 18.723 13.9331 18.4943 14.7832C18.3122 15.4587 18.0273 16.0926 17.6462 16.6675C17.2354 17.2879 16.7309 17.8148 16.1472 18.2331C15.5168 18.6844 14.8188 18.9921 14.0681 19.1502C14.0777 19.1302 14.0878 19.1097 14.0979 19.0896Z" fill="#51B761"/>
</svg>
