<?xml version="1.0" standalone="no"?>
<!DOCTYPE svg PUBLIC "-//W3C//DTD SVG 20010904//EN"
 "http://www.w3.org/TR/2001/REC-SVG-20010904/DTD/svg10.dtd">
<svg version="1.0" xmlns="http://www.w3.org/2000/svg"
 width="503.000000pt" height="503.000000pt" viewBox="0 0 503.000000 503.000000"
 preserveAspectRatio="xMidYMid meet">

<g transform="translate(0.000000,503.000000) scale(0.100000,-0.100000)"
fill="#000000" stroke="none">
<path d="M1472 4011 c-60 -21 -113 -67 -145 -126 l-22 -40 0 -1315 0 -1315 22
-41 c12 -23 41 -58 65 -78 78 -67 75 -67 749 -64 l604 3 95 46 c102 50 152 94
213 191 67 105 70 124 74 423 l3 270 -24 -72 c-30 -91 -71 -156 -141 -222 -62
-59 -172 -115 -254 -131 -30 -6 -216 -10 -425 -10 -350 0 -373 1 -403 20 -67
40 -63 -15 -63 982 0 876 1 904 20 935 34 56 43 58 320 63 254 5 255 5 307 32
84 45 133 124 133 215 0 111 -65 200 -173 237 -41 14 -107 16 -475 16 -388 -1
-432 -2 -480 -19z"/>
<path d="M2910 1051 c0 -5 -8 -12 -17 -14 -10 -3 18 -5 62 -4 44 0 70 2 58 4
-13 2 -23 10 -23 16 0 7 -4 6 -10 -3 -6 -10 -10 -11 -10 -2 0 7 -13 12 -30 12
-16 0 -30 -4 -30 -9z"/>
</g>
</svg>
